<svg width="47" height="47" viewBox="0 0 47 47" fill="none" xmlns="http://www.w3.org/2000/svg">
<g filter="url(#filter0_dd_37_1509)">
<mask id="mask0_37_1509" style="mask-type:alpha" maskUnits="userSpaceOnUse" x="1" y="1" width="45" height="45">
<path fill-rule="evenodd" clip-rule="evenodd" d="M22.4751 1.68143C33.4421 -0.450326 41.9384 5.28051 44.0701 16.2474L45.2807 22.4751C47.4124 33.442 41.6816 41.9384 30.7147 44.0701L24.487 45.2807C13.52 47.4124 5.02373 41.6816 2.89198 30.7147L1.68144 24.4869C-0.450315 13.52 5.28052 5.02372 16.2474 2.89197L22.4751 1.68143Z" fill="url(#paint0_linear_37_1509)"/>
</mask>
<g mask="url(#mask0_37_1509)">
<path fill-rule="evenodd" clip-rule="evenodd" d="M22.4751 1.68143C33.4421 -0.450326 41.9384 5.28051 44.0701 16.2474L45.2807 22.4751C47.4124 33.442 41.6816 41.9384 30.7147 44.0701L24.487 45.2807C13.52 47.4124 5.02373 41.6816 2.89198 30.7147L1.68144 24.4869C-0.450315 13.52 5.28052 5.02372 16.2474 2.89197L22.4751 1.68143Z" fill="url(#paint1_linear_37_1509)"/>
<path d="M7.34162 8.24335C4.1378 10.9359 2.47275 15.5016 2.47275 17.936C4.23095 17.5753 34.436 11.4442 40.7024 10.0917C38.0876 5.40318 33.6245 3.37448 30.6491 2.69825C27.6736 2.02202 24.563 2.38267 19.6941 3.37448C14.6248 4.40713 11.5793 4.68186 7.34162 8.24335Z" fill="black" fill-opacity="0.12"/>
<circle cx="7.90193" cy="21.9277" r="1.44263" transform="rotate(-11 7.90193 21.9277)" fill="black" fill-opacity="0.12"/>
<circle cx="12.858" cy="20.9644" r="1.44263" transform="rotate(-11 12.858 20.9644)" fill="black" fill-opacity="0.12"/>
<circle cx="17.8146" cy="20.0009" r="1.44263" transform="rotate(-11 17.8146 20.0009)" fill="black" fill-opacity="0.12"/>
<circle cx="22.771" cy="19.0376" r="1.44263" transform="rotate(-11 22.771 19.0376)" fill="black" fill-opacity="0.12"/>
<circle cx="27.7272" cy="18.0741" r="1.44263" transform="rotate(-11 27.7272 18.0741)" fill="black" fill-opacity="0.12"/>
<circle cx="9.00221" cy="27.5923" r="1.44263" transform="rotate(-11 9.00221 27.5923)" fill="black" fill-opacity="0.12"/>
<circle cx="13.959" cy="26.6288" r="1.44263" transform="rotate(-11 13.959 26.6288)" fill="black" fill-opacity="0.12"/>
<circle cx="18.9157" cy="25.6654" r="1.44263" transform="rotate(-11 18.9157 25.6654)" fill="black" fill-opacity="0.12"/>
<circle cx="23.8721" cy="24.702" r="1.44263" transform="rotate(-11 23.8721 24.702)" fill="black" fill-opacity="0.12"/>
<circle cx="28.8282" cy="23.7386" r="1.44263" transform="rotate(-11 28.8282 23.7386)" fill="black" fill-opacity="0.12"/>
<circle cx="33.7844" cy="22.7751" r="1.44263" transform="rotate(-11 33.7844 22.7751)" fill="black" fill-opacity="0.12"/>
<circle cx="38.7411" cy="21.8117" r="1.44263" transform="rotate(-11 38.7411 21.8117)" fill="black" fill-opacity="0.12"/>
<circle cx="10.1033" cy="33.2568" r="1.44263" transform="rotate(-11 10.1033 33.2568)" fill="black" fill-opacity="0.12"/>
<circle cx="15.06" cy="32.2934" r="1.44263" transform="rotate(-11 15.06 32.2934)" fill="black" fill-opacity="0.12"/>
<circle cx="20.0168" cy="31.3299" r="1.44263" transform="rotate(-11 20.0168 31.3299)" fill="black" fill-opacity="0.12"/>
<circle cx="24.9731" cy="30.3665" r="1.44263" transform="rotate(-11 24.9731 30.3665)" fill="black" fill-opacity="0.12"/>
<circle cx="29.9291" cy="29.403" r="1.44263" transform="rotate(-11 29.9291 29.403)" fill="black" fill-opacity="0.12"/>
<circle cx="34.8855" cy="28.4397" r="1.44263" transform="rotate(-11 34.8855 28.4397)" fill="black" fill-opacity="0.12"/>
<circle cx="39.8421" cy="27.4762" r="1.44263" transform="rotate(-11 39.8421 27.4762)" fill="black" fill-opacity="0.12"/>
<circle cx="21.1177" cy="36.9944" r="1.44263" transform="rotate(-11 21.1177 36.9944)" fill="black" fill-opacity="0.12"/>
<circle cx="16.1363" cy="37.9626" r="1.44263" transform="rotate(-11 16.1363 37.9626)" fill="black" fill-opacity="0.12"/>
<circle cx="11.1802" cy="38.9262" r="1.44263" transform="rotate(-11 11.1802 38.9262)" fill="black" fill-opacity="0.12"/>
<circle cx="26.0741" cy="36.031" r="1.44263" transform="rotate(-11 26.0741 36.031)" fill="black" fill-opacity="0.12"/>
<circle cx="31.0303" cy="35.0676" r="1.44263" transform="rotate(-11 31.0303 35.0676)" fill="black" fill-opacity="0.12"/>
<circle cx="35.9866" cy="34.1041" r="1.44263" transform="rotate(-11 35.9866 34.1041)" fill="black" fill-opacity="0.12"/>
<circle cx="40.9432" cy="33.1407" r="1.44263" transform="rotate(-11 40.9432 33.1407)" fill="black" fill-opacity="0.12"/>
</g>
<g filter="url(#filter1_d_37_1509)">
<ellipse cx="23.4747" cy="23.5011" rx="15.8361" ry="16.0889" transform="rotate(3 23.4747 23.5011)" fill="white"/>
</g>
<g filter="url(#filter2_d_37_1509)">
<rect x="18.7794" y="35.7846" width="1.17928" height="13.3644" rx="0.589642" transform="rotate(-156.884 18.7794 35.7846)" fill="#222222" fill-opacity="0.12"/>
</g>
<g filter="url(#filter3_d_37_1509)">
<rect x="32.5322" y="32.5583" width="1.17929" height="13.3644" rx="0.589643" transform="rotate(137.153 32.5322 32.5583)" fill="#222222" fill-opacity="0.12"/>
</g>
<g filter="url(#filter4_d_37_1509)">
<rect x="16.0519" y="10.6275" width="1.17929" height="15.1623" rx="0.589644" transform="rotate(-27 16.0519 10.6275)" fill="#222222"/>
</g>
<g filter="url(#filter5_d_37_1509)">
<rect x="31.6804" y="18.4389" width="2.02163" height="10.0173" rx="1.01082" transform="rotate(63 31.6804 18.4389)" fill="#222222"/>
</g>
<g filter="url(#filter6_d_37_1509)">
<circle cx="23.4705" cy="23.5852" r="1.6847" transform="rotate(3 23.4705 23.5852)" fill="white"/>
</g>
</g>
<defs>
<filter id="filter0_dd_37_1509" x="1.11395" y="1.11395" width="44.7342" height="44.8614" filterUnits="userSpaceOnUse" color-interpolation-filters="sRGB">
<feFlood flood-opacity="0" result="BackgroundImageFix"/>
<feColorMatrix in="SourceAlpha" type="matrix" values="0 0 0 0 0 0 0 0 0 0 0 0 0 0 0 0 0 0 127 0" result="hardAlpha"/>
<feOffset dy="0.127229"/>
<feGaussianBlur stdDeviation="0.0636145"/>
<feColorMatrix type="matrix" values="0 0 0 0 0 0 0 0 0 0 0 0 0 0 0 0 0 0 0.08 0"/>
<feBlend mode="normal" in2="BackgroundImageFix" result="effect1_dropShadow_37_1509"/>
<feColorMatrix in="SourceAlpha" type="matrix" values="0 0 0 0 0 0 0 0 0 0 0 0 0 0 0 0 0 0 127 0" result="hardAlpha"/>
<feOffset/>
<feGaussianBlur stdDeviation="0.0636145"/>
<feColorMatrix type="matrix" values="0 0 0 0 0 0 0 0 0 0 0 0 0 0 0 0 0 0 0.28 0"/>
<feBlend mode="normal" in2="effect1_dropShadow_37_1509" result="effect2_dropShadow_37_1509"/>
<feBlend mode="normal" in="SourceGraphic" in2="effect2_dropShadow_37_1509" result="shape"/>
</filter>
<filter id="filter1_d_37_1509" x="6.47025" y="6.2453" width="34.0089" height="34.5116" filterUnits="userSpaceOnUse" color-interpolation-filters="sRGB">
<feFlood flood-opacity="0" result="BackgroundImageFix"/>
<feColorMatrix in="SourceAlpha" type="matrix" values="0 0 0 0 0 0 0 0 0 0 0 0 0 0 0 0 0 0 127 0" result="hardAlpha"/>
<feOffset/>
<feGaussianBlur stdDeviation="0.583616"/>
<feColorMatrix type="matrix" values="0 0 0 0 0 0 0 0 0 0 0 0 0 0 0 0 0 0 0.12 0"/>
<feBlend mode="normal" in2="BackgroundImageFix" result="effect1_dropShadow_37_1509"/>
<feBlend mode="normal" in="SourceGraphic" in2="effect1_dropShadow_37_1509" result="shape"/>
</filter>
<filter id="filter2_d_37_1509" x="16.9279" y="22.2633" width="7.86523" height="14.2882" filterUnits="userSpaceOnUse" color-interpolation-filters="sRGB">
<feFlood flood-opacity="0" result="BackgroundImageFix"/>
<feColorMatrix in="SourceAlpha" type="matrix" values="0 0 0 0 0 0 0 0 0 0 0 0 0 0 0 0 0 0 127 0" result="hardAlpha"/>
<feOffset/>
<feGaussianBlur stdDeviation="0.475449"/>
<feColorMatrix type="matrix" values="0 0 0 0 0 0 0 0 0 0 0 0 0 0 0 0 0 0 0.08 0"/>
<feBlend mode="normal" in2="BackgroundImageFix" result="effect1_dropShadow_37_1509"/>
<feBlend mode="normal" in="SourceGraphic" in2="effect1_dropShadow_37_1509" result="shape"/>
</filter>
<filter id="filter3_d_37_1509" x="21.8719" y="22.0526" width="11.3676" height="12.0149" filterUnits="userSpaceOnUse" color-interpolation-filters="sRGB">
<feFlood flood-opacity="0" result="BackgroundImageFix"/>
<feColorMatrix in="SourceAlpha" type="matrix" values="0 0 0 0 0 0 0 0 0 0 0 0 0 0 0 0 0 0 127 0" result="hardAlpha"/>
<feOffset/>
<feGaussianBlur stdDeviation="0.475449"/>
<feColorMatrix type="matrix" values="0 0 0 0 0 0 0 0 0 0 0 0 0 0 0 0 0 0 0.08 0"/>
<feBlend mode="normal" in2="BackgroundImageFix" result="effect1_dropShadow_37_1509"/>
<feBlend mode="normal" in="SourceGraphic" in2="effect1_dropShadow_37_1509" result="shape"/>
</filter>
<filter id="filter4_d_37_1509" x="15.3044" y="9.34451" width="9.42944" height="15.5403" filterUnits="userSpaceOnUse" color-interpolation-filters="sRGB">
<feFlood flood-opacity="0" result="BackgroundImageFix"/>
<feColorMatrix in="SourceAlpha" type="matrix" values="0 0 0 0 0 0 0 0 0 0 0 0 0 0 0 0 0 0 127 0" result="hardAlpha"/>
<feOffset/>
<feGaussianBlur stdDeviation="0.475449"/>
<feColorMatrix type="matrix" values="0 0 0 0 0 0 0 0 0 0 0 0 0 0 0 0 0 0 0.08 0"/>
<feBlend mode="normal" in2="BackgroundImageFix" result="effect1_dropShadow_37_1509"/>
<feBlend mode="normal" in="SourceGraphic" in2="effect1_dropShadow_37_1509" result="shape"/>
</filter>
<filter id="filter5_d_37_1509" x="22.1525" y="17.8365" width="11.0481" height="7.55383" filterUnits="userSpaceOnUse" color-interpolation-filters="sRGB">
<feFlood flood-opacity="0" result="BackgroundImageFix"/>
<feColorMatrix in="SourceAlpha" type="matrix" values="0 0 0 0 0 0 0 0 0 0 0 0 0 0 0 0 0 0 127 0" result="hardAlpha"/>
<feOffset/>
<feGaussianBlur stdDeviation="0.475449"/>
<feColorMatrix type="matrix" values="0 0 0 0 0 0 0 0 0 0 0 0 0 0 0 0 0 0 0.08 0"/>
<feBlend mode="normal" in2="BackgroundImageFix" result="effect1_dropShadow_37_1509"/>
<feBlend mode="normal" in="SourceGraphic" in2="effect1_dropShadow_37_1509" result="shape"/>
</filter>
<filter id="filter6_d_37_1509" x="20.5971" y="20.7119" width="5.74669" height="5.74672" filterUnits="userSpaceOnUse" color-interpolation-filters="sRGB">
<feFlood flood-opacity="0" result="BackgroundImageFix"/>
<feColorMatrix in="SourceAlpha" type="matrix" values="0 0 0 0 0 0 0 0 0 0 0 0 0 0 0 0 0 0 127 0" result="hardAlpha"/>
<feOffset/>
<feGaussianBlur stdDeviation="0.594311"/>
<feColorMatrix type="matrix" values="0 0 0 0 0 0 0 0 0 0 0 0 0 0 0 0 0 0 0.12 0"/>
<feBlend mode="normal" in2="BackgroundImageFix" result="effect1_dropShadow_37_1509"/>
<feBlend mode="normal" in="SourceGraphic" in2="effect1_dropShadow_37_1509" result="shape"/>
</filter>
<linearGradient id="paint0_linear_37_1509" x1="64.044" y1="15.3399" x2="15.4625" y2="-17.2228" gradientUnits="userSpaceOnUse">
<stop stop-color="#3374F6"/>
<stop offset="1" stop-color="#00D3ED"/>
</linearGradient>
<linearGradient id="paint1_linear_37_1509" x1="64.044" y1="15.3399" x2="15.4625" y2="-17.2228" gradientUnits="userSpaceOnUse">
<stop stop-color="#3374F6"/>
<stop offset="1" stop-color="#00D3ED"/>
</linearGradient>
</defs>
</svg>
