<svg width="443" height="443" viewBox="0 0 443 443" fill="none" xmlns="http://www.w3.org/2000/svg">
<g clip-path="url(#clip0_35_751)">
<path d="M358.19 74.15C366.51 70.87 372.42 62.82 372.47 53.34C372.52 40.91 362.51 30.79 350.09 30.74C337.68 30.69 327.57 40.72 327.52 53.15C327.48 62.73 333.43 70.87 341.84 74.16C307.25 79.05 308.82 114.34 308.82 114.34L390.61 114.69C390.61 114.69 392.48 79.02 358.19 74.15Z" fill="#EBEBEB"/>
<path d="M410.225 109.06C410.357 95.8062 399.72 84.9546 386.465 84.8228C373.211 84.6909 362.36 95.3286 362.228 108.583C362.096 121.837 372.734 132.689 385.988 132.82C399.242 132.952 410.094 122.315 410.225 109.06Z" fill="#E0E0E0"/>
<path d="M410.06 111.4C410.06 111.4 410.05 111.27 410.06 111.01C410.06 110.73 410.08 110.35 410.1 109.87C410.11 109.62 410.12 109.34 410.14 109.03C410.14 108.72 410.11 108.38 410.09 108.02C410.05 107.29 410.03 106.44 409.85 105.51C409.62 103.63 408.99 101.36 407.88 98.91C406.76 96.47 405.04 93.87 402.57 91.55C400.11 89.25 396.91 87.18 393.09 86.07C389.29 84.99 384.9 84.64 380.57 85.77C379.47 85.99 378.42 86.41 377.34 86.79C376.31 87.27 375.23 87.7 374.24 88.34C373.21 88.9 372.28 89.63 371.32 90.33C370.43 91.12 369.5 91.89 368.71 92.82C367.09 94.62 365.63 96.65 364.63 98.96C363.6 101.25 362.92 103.72 362.61 106.27C362.37 108.84 362.51 111.4 363.02 113.85C363.5 116.32 364.5 118.62 365.69 120.72C366.27 121.79 367.01 122.74 367.71 123.71C368.5 124.6 369.25 125.51 370.14 126.28C370.96 127.11 371.93 127.76 372.83 128.46C373.8 129.06 374.74 129.69 375.76 130.15C379.75 132.18 384.11 132.78 388.06 132.53C392.04 132.26 395.6 130.92 398.5 129.2C401.41 127.46 403.64 125.28 405.26 123.14C406.87 120.99 407.97 118.91 408.6 117.12C408.98 116.24 409.18 115.42 409.37 114.72C409.46 114.37 409.57 114.04 409.63 113.74C409.68 113.44 409.73 113.16 409.77 112.91C409.86 112.44 409.92 112.07 409.98 111.79C410.03 111.54 410.06 111.41 410.07 111.41C410.07 111.41 410.07 111.54 410.04 111.8C410 112.08 409.95 112.46 409.89 112.93C409.85 113.18 409.81 113.46 409.77 113.77C409.71 114.07 409.62 114.4 409.53 114.76C409.35 115.47 409.16 116.31 408.8 117.19C408.2 119.01 407.11 121.12 405.51 123.32C403.89 125.5 401.64 127.73 398.7 129.52C395.77 131.29 392.15 132.67 388.1 132.96C384.08 133.23 379.64 132.64 375.56 130.58C374.52 130.12 373.55 129.48 372.56 128.86C371.63 128.16 370.65 127.49 369.81 126.65C368.9 125.87 368.13 124.94 367.32 124.03C366.6 123.05 365.85 122.08 365.26 120.98C364.04 118.83 363.02 116.48 362.53 113.96C362 111.45 361.86 108.83 362.11 106.21C362.43 103.6 363.13 101.07 364.18 98.74C365.2 96.39 366.7 94.31 368.35 92.47C369.16 91.53 370.11 90.74 371.02 89.93C372.01 89.22 372.96 88.47 374.01 87.91C375.01 87.26 376.12 86.82 377.17 86.34C378.27 85.95 379.35 85.53 380.47 85.31C384.9 84.17 389.37 84.54 393.23 85.67C397.12 86.82 400.36 88.95 402.84 91.3C405.33 93.67 407.05 96.33 408.16 98.81C409.26 101.3 409.87 103.6 410.07 105.5C410.24 106.45 410.24 107.3 410.26 108.03C410.26 108.4 410.29 108.74 410.28 109.05C410.26 109.36 410.24 109.64 410.22 109.89C410.18 110.37 410.15 110.75 410.13 111.03C410.11 111.29 410.09 111.42 410.08 111.42L410.06 111.4Z" fill="white"/>
<path d="M384.49 119.99L372.04 109.56L375.68 105.22L384.03 112.21L396.83 98.6L400.96 102.49L384.49 119.99Z" fill="white"/>
<path d="M420.84 71.39C420.94 71.49 418.31 74.32 414.95 77.7C411.59 81.09 408.79 83.75 408.69 83.65C408.59 83.55 411.22 80.72 414.58 77.34C417.93 73.95 420.74 71.29 420.84 71.39Z" fill="#E0E0E0"/>
<path d="M442.26 89.33C442.26 89.33 441.91 89.53 441.25 89.81C440.59 90.09 439.62 90.47 438.41 90.92C436 91.81 432.63 92.94 428.84 93.99C425.05 95.04 421.58 95.8 419.05 96.27C417.79 96.51 416.76 96.68 416.05 96.78C415.34 96.88 414.94 96.92 414.93 96.88C414.93 96.84 415.31 96.74 416.01 96.58C416.82 96.4 417.81 96.17 418.98 95.91C421.48 95.35 424.93 94.53 428.7 93.48C432.47 92.44 435.85 91.37 438.29 90.57C439.42 90.2 440.39 89.88 441.18 89.62C441.86 89.4 442.25 89.29 442.26 89.33Z" fill="#E0E0E0"/>
<path d="M430.05 122.46C429.98 122.59 426.67 120.87 422.66 118.62C418.65 116.37 415.45 114.45 415.52 114.32C415.59 114.19 418.9 115.91 422.91 118.16C426.92 120.41 430.12 122.33 430.05 122.46Z" fill="#E0E0E0"/>
<path d="M393.54 59.04C396.4 57.91 398.43 55.15 398.45 51.88C398.47 47.61 395.02 44.13 390.75 44.11C386.48 44.09 383.01 47.54 382.99 51.81C382.98 55.1 385.02 57.9 387.91 59.03C376.02 60.71 376.56 72.85 376.56 72.85L404.68 72.97C404.68 72.97 405.32 60.7 393.53 59.03L393.54 59.04Z" fill="#EBEBEB"/>
<path d="M11.36 228.25C11.36 228.25 2.14001 229.96 8.32 249.74C14.5 269.52 19.42 279.64 19.42 279.64C19.42 279.64 20.34 284.14 16.62 284.18C12.9 284.22 5.19001 281.6 2.81 285.67C0.340005 289.89 2.91 294.71 8.98 299.6C15.05 304.49 27.96 315.67 29.12 316.69C30.26 317.69 31.2 319.87 28.67 320.29C26.14 320.71 7.97001 319.48 7.88001 328.01C7.80001 336.54 26.99 347.41 29.06 348.64C31.13 349.87 31.5 350.89 31.11 352.06C30.72 353.23 24.65 352.25 19.46 352.11C14.28 351.97 8.24001 352.7 8.61 357.62C8.98 362.55 19.36 374.54 48.33 382.46L62 385.26L71.51 375.1C90.53 352.14 91.97 336.44 89.39 332.21C86.81 327.98 81.45 330.82 77.3 333.88C73.15 336.94 68.77 341.2 67.76 340.47C66.75 339.74 66.45 338.7 67.43 336.51C68.4 334.33 77.7 314.53 72.64 307.61C67.58 300.69 53.46 312.05 51.15 313.14C48.84 314.23 48.32 311.92 48.67 310.46C49.02 308.97 53.01 292.49 55.1 285.04C57.19 277.59 56.47 272.2 51.98 270.16C47.66 268.19 42.89 274.71 39.83 276.8C36.77 278.89 34.88 274.69 34.88 274.69C34.88 274.69 32.97 263.63 26.43 243.96C19.89 224.29 11.16 228.28 11.16 228.28" fill="#EBEBEB"/>
<path d="M62.16 388.58C57.41 374.12 49.41 348.27 42.42 326.11C35.44 303.96 29.09 283.91 24.42 269.43C22.08 262.2 20.18 256.35 18.87 252.28C18.22 250.27 17.71 248.7 17.36 247.62C17.2 247.1 17.07 246.69 16.98 246.4C16.9 246.13 16.86 245.98 16.86 245.98C16.86 245.98 16.92 246.12 17.02 246.39C17.12 246.68 17.26 247.08 17.44 247.59C17.81 248.67 18.34 250.23 19.02 252.23C20.39 256.26 22.33 262.11 24.7 269.34C29.45 283.8 35.84 303.84 42.82 325.99C49.81 348.15 57.76 374.01 62.44 388.49" fill="#E0E0E0"/>
<path d="M13.45 289.76C13.45 289.76 13.79 289.89 14.36 290.19C14.93 290.49 15.75 290.94 16.76 291.51C18.77 292.65 21.5 294.3 24.48 296.18C27.41 298.04 30.07 299.72 32.1 301.01C33.02 301.58 33.79 302.07 34.42 302.46C34.97 302.8 35.27 303 35.25 303.03C35.24 303.06 34.91 302.9 34.33 302.61C33.76 302.31 32.94 301.86 31.94 301.28C29.94 300.12 27.23 298.43 24.25 296.56C21.3 294.72 18.64 293.06 16.6 291.79C15.68 291.22 14.9 290.74 14.28 290.35C13.73 290.01 13.44 289.8 13.45 289.78V289.76Z" fill="#E0E0E0"/>
<path d="M36.34 302.31C36.24 302.25 39.44 296.55 43.51 289.58C47.57 282.61 50.95 277 51.05 277.06C51.15 277.12 47.95 282.82 43.88 289.79C39.82 296.76 36.44 302.37 36.34 302.31Z" fill="#E0E0E0"/>
<path d="M45.51 336.81C45.51 336.81 45.74 336.53 46.22 336.07C46.76 335.56 47.44 334.92 48.24 334.15C49.94 332.53 52.28 330.28 54.77 327.71C57.27 325.14 59.44 322.74 61.01 320.99C61.75 320.17 62.37 319.47 62.86 318.92C63.3 318.43 63.56 318.17 63.58 318.19C63.6 318.21 63.39 318.5 62.99 319.03C62.59 319.55 62 320.29 61.24 321.19C59.74 322.99 57.59 325.43 55.08 328.01C52.58 330.59 50.2 332.81 48.44 334.37C47.56 335.15 46.84 335.77 46.33 336.19C45.82 336.61 45.53 336.83 45.51 336.81Z" fill="#E0E0E0"/>
<path d="M22.27 329.94C22.27 329.94 22.61 329.98 23.21 330.12C23.89 330.29 24.73 330.51 25.72 330.76C27.83 331.32 30.74 332.11 33.95 333.01C37.16 333.91 40.06 334.76 42.15 335.38C43.12 335.68 43.95 335.94 44.62 336.15C45.2 336.34 45.52 336.46 45.51 336.49C45.5 336.52 45.17 336.45 44.57 336.31C43.89 336.14 43.05 335.92 42.06 335.67C39.95 335.11 37.04 334.32 33.83 333.42C30.62 332.52 27.72 331.68 25.63 331.05C24.66 330.75 23.83 330.49 23.16 330.28C22.58 330.09 22.26 329.97 22.27 329.94Z" fill="#E0E0E0"/>
<path d="M26.43 361.41C26.43 361.41 26.86 361.47 27.63 361.65C28.47 361.86 29.55 362.13 30.85 362.45C33.56 363.15 37.3 364.14 41.42 365.26C45.54 366.38 49.27 367.42 51.96 368.19C53.24 368.57 54.31 368.88 55.14 369.12C55.89 369.35 56.3 369.49 56.29 369.52C56.29 369.55 55.86 369.46 55.09 369.28C54.25 369.07 53.17 368.8 51.87 368.48C49.16 367.78 45.42 366.79 41.29 365.67C37.17 364.55 33.44 363.51 30.75 362.74C29.47 362.36 28.4 362.05 27.57 361.81C26.82 361.58 26.41 361.44 26.42 361.41H26.43Z" fill="#E0E0E0"/>
<path d="M55.64 369.13C55.64 369.13 55.93 368.77 56.51 368.17C57.15 367.52 57.98 366.67 58.98 365.65C61.06 363.52 63.93 360.57 67 357.22C70.08 353.88 72.78 350.78 74.72 348.52C75.65 347.44 76.43 346.54 77.02 345.85C77.57 345.22 77.88 344.88 77.9 344.9C77.92 344.92 77.65 345.29 77.15 345.95C76.64 346.61 75.9 347.56 74.95 348.71C73.07 351.02 70.4 354.15 67.31 357.5C64.23 360.85 61.33 363.78 59.19 365.85C58.12 366.89 57.24 367.72 56.62 368.28C56 368.84 55.65 369.14 55.63 369.12L55.64 369.13Z" fill="#E0E0E0"/>
<path d="M42.55 35.54L47.97 33.12L52.44 11.38L47.62 0.580006C47.62 0.580006 55.76 -3.66999 61.09 10.93C66.42 25.53 65.88 21.45 65.88 21.45C65.88 21.45 83.68 13.59 85.85 14.48C87.42 15.12 95.79 32.56 100.24 42.05C102.48 46.83 101.53 52.63 97.55 55.77C96.99 56.22 96.38 56.6 95.75 56.88C91.32 58.86 67.06 65.36 67.06 65.36L57.71 69.53L42.56 35.56L42.55 35.54Z" fill="#F5F5F5"/>
<path d="M25.73 39.49L45.58 75.05L54.85 70.91L38.66 34.61L25.73 39.49Z" fill="#F5F5F5"/>
<path d="M18.73 150.73C21.88 149.49 24.13 146.43 24.15 142.84C24.17 138.13 20.37 134.29 15.66 134.27C10.95 134.25 7.12 138.05 7.1 142.77C7.08 146.4 9.34 149.49 12.53 150.74C-0.589995 152.59 4.33112e-06 165.97 4.33112e-06 165.97L31.02 166.1C31.02 166.1 31.73 152.57 18.72 150.73H18.73Z" fill="#F5F5F5"/>
<path d="M428 442.01C428 442.15 335.56 442.27 221.56 442.27C107.56 442.27 15.1 442.15 15.1 442.01C15.1 441.87 107.52 441.75 221.56 441.75C335.6 441.75 428 441.87 428 442.01Z" fill="#263238"/>
<path d="M210.92 442.01L75.59 441.93C59.31 441.93 46.13 428.72 46.13 412.45L46.2 73.18C46.2 56.9 59.41 43.7 75.7 43.71L211.03 43.79C227.31 43.79 240.49 57 240.49 73.27L240.42 412.54C240.42 428.82 227.21 442.02 210.92 442.01Z" fill="#263238"/>
<path d="M210.88 55.79L184.64 55.77C181.12 55.77 178.27 58.75 178.27 62.43V67.19C178.27 70.87 175.41 73.85 171.9 73.85L120.76 73.82C117.24 73.82 114.39 70.83 114.39 67.16V62.4C114.39 58.72 111.54 55.74 108.02 55.74H98.79L75.83 55.72C64.43 55.72 55.18 64.96 55.17 76.36L55.11 407.51C55.11 418.91 64.34 428.15 75.74 428.16L210.8 428.24C222.2 428.24 231.45 419 231.46 407.6L231.52 76.45C231.52 65.05 222.29 55.81 210.89 55.8L210.88 55.79Z" fill="white"/>
<path d="M201.02 406.14H85.59C82.72 406.14 80.38 403.8 80.38 400.93V369.36C80.38 366.49 82.72 364.15 85.59 364.15H201.02C203.89 364.15 206.23 366.49 206.23 369.36V400.93C206.23 403.8 203.9 406.14 201.02 406.14ZM85.59 365.16C83.27 365.16 81.38 367.05 81.38 369.37V400.94C81.38 403.26 83.27 405.15 85.59 405.15H201.02C203.34 405.15 205.23 403.26 205.23 400.94V369.37C205.23 367.05 203.34 365.16 201.02 365.16H85.59Z" fill="#E0E0E0"/>
<path d="M112.16 382.68C112.16 376.92 106.96 372.38 101 373.5C97.25 374.2 94.26 377.27 93.61 381.02C93.2 383.37 93.68 385.58 94.76 387.4L94.79 387.44C95.15 388.04 95.6 388.48 96.05 389.11L101.48 396.3C102.16 397.19 103.5 397.19 104.18 396.3L109.52 389.23C109.52 389.23 110.52 388.04 110.88 387.43L110.9 387.4C111.72 386.01 112.19 384.4 112.19 382.68H112.16ZM102.81 386.75C100.54 386.75 98.7 384.91 98.7 382.64C98.7 380.37 100.54 378.53 102.81 378.53C105.08 378.53 106.92 380.37 106.92 382.64C106.92 384.91 105.08 386.75 102.81 386.75Z" fill="#3D73DD"/>
<path d="M189.35 379.97H131.48C128.746 379.97 126.53 382.186 126.53 384.92V386.12C126.53 388.854 128.746 391.07 131.48 391.07H189.35C192.084 391.07 194.3 388.854 194.3 386.12V384.92C194.3 382.186 192.084 379.97 189.35 379.97Z" fill="#E0E0E0"/>
<path d="M79.14 303.76C79.14 299.54 82.37 296.55 86.77 296.55C89.32 296.55 91.38 297.48 92.73 299.16L90.23 301.42C89.36 300.37 88.29 299.8 86.96 299.8C84.68 299.8 83.1 301.39 83.1 303.76C83.1 306.13 84.68 307.72 86.96 307.72C88.29 307.72 89.36 307.15 90.23 306.1L92.73 308.36C91.38 310.04 89.32 310.97 86.77 310.97C82.37 310.97 79.14 307.98 79.14 303.76Z" fill="#3D73DD"/>
<path d="M93.46 303.76C93.46 299.6 96.73 296.55 101.16 296.55C105.59 296.55 108.86 299.6 108.86 303.76C108.86 307.92 105.59 310.97 101.16 310.97C96.73 310.97 93.46 307.92 93.46 303.76ZM104.91 303.76C104.91 301.36 103.27 299.8 101.17 299.8C99.07 299.8 97.43 301.37 97.43 303.76C97.43 306.15 99.07 307.72 101.17 307.72C103.27 307.72 104.91 306.16 104.91 303.76Z" fill="#3D73DD"/>
<path d="M124.12 296.83V310.69H120.89L114.77 303.3V310.69H110.93V296.83H114.16L120.28 304.22V296.83H124.12Z" fill="#3D73DD"/>
<path d="M130.81 299.86V302.91H136.93V305.94H130.81V310.69H126.89V296.83H137.76V299.86H130.81Z" fill="#3D73DD"/>
<path d="M139.6 296.83H143.52V310.69H139.6V296.83Z" fill="#3D73DD"/>
<path d="M152.38 307.01H150.24V310.69H146.32V296.83H152.66C156.44 296.83 158.82 298.79 158.82 301.96C158.82 304 157.83 305.5 156.11 306.34L159.1 310.7H154.9L152.38 307.02V307.01ZM152.42 299.92H150.24V303.98H152.42C154.04 303.98 154.86 303.23 154.86 301.96C154.86 300.69 154.05 299.92 152.42 299.92Z" fill="#3D73DD"/>
<path d="M173.49 310.7L173.45 303.35L169.88 309.33H168.14L164.59 303.55V310.7H160.97V296.84H164.2L169.07 304.84L173.82 296.84H177.05L177.09 310.7H173.49Z" fill="#3D73DD"/>
<path d="M191 307.67V310.7H179.87V296.84H190.74V299.87H183.75V302.21H189.91V305.14H183.75V307.68H191V307.67Z" fill="#3D73DD"/>
<path d="M193.18 296.83H199.74C204.33 296.83 207.48 299.5 207.48 303.76C207.48 308.02 204.33 310.69 199.74 310.69H193.18V296.83ZM199.58 307.57C201.94 307.57 203.52 306.16 203.52 303.77C203.52 301.38 201.94 299.97 199.58 299.97H197.1V307.58H199.58V307.57Z" fill="#3D73DD"/>
<path d="M96.72 326.85H90.87L89.61 329.65H88.45L93.25 319.15H94.35L99.15 329.65H97.98L96.72 326.85ZM96.32 325.95L93.8 320.31L91.28 325.95H96.32Z" fill="#3D73DD"/>
<path d="M102.41 320.12H98.72V319.16H107.21V320.12H103.52V329.66H102.41V320.12Z" fill="#3D73DD"/>
<path d="M111.16 320.12H107.47V319.16H115.96V320.12H112.27V329.66H111.16V320.12Z" fill="#3D73DD"/>
<path d="M125.16 328.7V329.66H117.74V319.16H124.94V320.12H118.85V323.86H124.28V324.81H118.85V328.71H125.16V328.7Z" fill="#3D73DD"/>
<path d="M136.54 319.16V329.66H135.63L128.88 321.14V329.66H127.77V319.16H128.69L135.45 327.68V319.16H136.54Z" fill="#3D73DD"/>
<path d="M139.96 319.16H144.23C147.59 319.16 149.85 321.32 149.85 324.41C149.85 327.5 147.59 329.66 144.23 329.66H139.96V319.16ZM144.17 328.7C146.96 328.7 148.76 326.93 148.76 324.41C148.76 321.89 146.96 320.12 144.17 320.12H141.07V328.7H144.17Z" fill="#3D73DD"/>
<path d="M158.79 326.85H152.94L151.68 329.65H150.52L155.32 319.15H156.42L161.22 329.65H160.05L158.79 326.85ZM158.39 325.95L155.87 320.31L153.35 325.95H158.39Z" fill="#3D73DD"/>
<path d="M171.73 319.16V329.66H170.82L164.07 321.14V329.66H162.96V319.16H163.87L170.63 327.68V319.16H171.72H171.73Z" fill="#3D73DD"/>
<path d="M174.22 324.41C174.22 321.34 176.56 319.07 179.72 319.07C181.25 319.07 182.63 319.58 183.56 320.6L182.85 321.31C182 320.44 180.95 320.06 179.75 320.06C177.21 320.06 175.31 321.92 175.31 324.41C175.31 326.9 177.21 328.76 179.75 328.76C180.95 328.76 182 328.38 182.85 327.5L183.56 328.2C182.63 329.22 181.25 329.75 179.71 329.75C176.56 329.75 174.22 327.49 174.22 324.41Z" fill="#3D73DD"/>
<path d="M193.36 328.7V329.66H185.94V319.16H193.14V320.12H187.05V323.86H192.48V324.81H187.05V328.71H193.36V328.7Z" fill="#3D73DD"/>
<path d="M187.37 341.93H99.25C96.8918 341.93 94.98 343.842 94.98 346.2V347.23C94.98 349.588 96.8918 351.5 99.25 351.5H187.37C189.728 351.5 191.64 349.588 191.64 347.23V346.2C191.64 343.842 189.728 341.93 187.37 341.93Z" fill="#E0E0E0"/>
<path d="M86.81 89.63H74.22C73.66 89.63 73.2 89.17 73.2 88.61C73.2 88.05 73.66 87.59 74.22 87.59H86.81C87.37 87.59 87.83 88.05 87.83 88.61C87.83 89.17 87.37 89.63 86.81 89.63Z" fill="#263238"/>
<path d="M86.7 93.71H74.11C73.55 93.71 73.09 93.25 73.09 92.69C73.09 92.13 73.55 91.67 74.11 91.67H86.7C87.26 91.67 87.72 92.13 87.72 92.69C87.72 93.25 87.26 93.71 86.7 93.71Z" fill="#263238"/>
<path d="M86.59 97.8H74C73.44 97.8 72.98 97.34 72.98 96.78C72.98 96.22 73.44 95.76 74 95.76H86.59C87.15 95.76 87.61 96.22 87.61 96.78C87.61 97.34 87.15 97.8 86.59 97.8Z" fill="#263238"/>
<path d="M282.35 27.54L210.18 15.96C206.53 15.37 203.1 17.86 202.52 21.5L190.94 93.67C190.35 97.32 192.84 100.75 196.48 101.33L198.64 101.68L218.72 104.9L268.65 112.91C272.3 113.5 275.73 111.01 276.31 107.37L287.89 35.2C288.48 31.55 285.99 28.12 282.35 27.54Z" fill="white"/>
<path d="M284.63 55.5544L199.253 41.8486L202.696 20.4032C203.184 17.3621 206.048 15.29 209.089 15.7782L283.21 27.677C286.38 28.1858 288.543 31.1765 288.034 34.3459L284.63 55.5544Z" fill="#3D73DD"/>
<path d="M234.54 58.74L229.88 87.76L223.16 86.68L226.95 63.05L221.15 62.12L222.02 56.73L234.54 58.74Z" fill="#263238"/>
<path d="M262.31 63.2L261.61 67.55L246.87 90.49L239.57 89.32L253.76 67.44L244.14 65.9L243.38 70.63L237.41 69.67L239.05 59.47L262.31 63.2Z" fill="#263238"/>
<path d="M231.89 35.13C231.87 35.28 237.71 36.35 244.95 37.51C252.19 38.67 258.07 39.49 258.1 39.34C258.12 39.19 252.28 38.13 245.04 36.96C237.81 35.8 231.92 34.98 231.9 35.13H231.89Z" fill="#263238"/>
<path d="M282.35 27.54C282.35 27.54 282.64 27.57 283.2 27.71C283.75 27.85 284.57 28.17 285.46 28.85C286.33 29.54 287.3 30.64 287.77 32.23C288.01 33.02 288.12 33.91 288.02 34.86C287.91 35.8 287.73 36.78 287.57 37.82C286.24 46.19 284.33 58.28 281.97 73.21C280.78 80.68 279.48 88.86 278.08 97.64C277.73 99.84 277.37 102.07 277.01 104.34C276.82 105.48 276.67 106.61 276.44 107.78C276.2 108.96 275.61 110.07 274.79 110.97C273.96 111.86 272.89 112.56 271.7 112.91C270.52 113.3 269.21 113.26 268.02 113.03C265.61 112.65 263.18 112.26 260.71 111.86C240.96 108.7 219.25 105.22 196.46 101.57C193.48 101.13 191.01 98.56 190.68 95.6C190.57 94.87 190.64 94.12 190.75 93.41L191.09 91.31C191.31 89.91 191.54 88.52 191.76 87.13C192.65 81.58 193.53 76.11 194.39 70.74C196.12 59.99 197.79 49.63 199.38 39.75C200.18 34.81 200.95 30 201.71 25.32C201.9 24.15 202.09 22.99 202.27 21.84C202.35 21.27 202.49 20.67 202.69 20.11C202.92 19.56 203.18 19.02 203.54 18.55C204.22 17.58 205.18 16.83 206.22 16.33C207.28 15.85 208.45 15.63 209.59 15.71C218.41 17.07 226.56 18.43 234.04 19.63C248.96 22.06 261.04 24.02 269.4 25.38C273.57 26.07 276.8 26.6 279.01 26.97C280.1 27.16 280.93 27.3 281.51 27.39C282.07 27.49 282.36 27.55 282.36 27.55C282.36 27.55 282.07 27.52 281.5 27.44C280.92 27.35 280.09 27.23 279 27.06C276.79 26.72 273.55 26.21 269.38 25.56C261.01 24.23 248.93 22.32 233.99 19.96C226.53 18.79 218.32 17.44 209.57 16.1C208.49 16.03 207.39 16.24 206.4 16.69C205.42 17.17 204.52 17.87 203.88 18.79C203.54 19.23 203.3 19.75 203.08 20.26C202.89 20.79 202.76 21.33 202.68 21.91C202.5 23.06 202.31 24.22 202.12 25.39C201.37 30.07 200.6 34.88 199.81 39.82C198.23 49.7 196.57 60.06 194.85 70.81C193.99 76.18 193.11 81.65 192.22 87.2C192 88.59 191.77 89.98 191.55 91.38C191.37 92.79 190.96 94.18 191.15 95.54C191.45 98.3 193.75 100.7 196.53 101.1C219.32 104.76 241.03 108.26 260.77 111.43C263.24 111.83 265.68 112.22 268.08 112.61C269.27 112.84 270.45 112.87 271.57 112.51C272.69 112.19 273.69 111.53 274.48 110.7C275.25 109.85 275.81 108.81 276.03 107.7C276.25 106.58 276.41 105.41 276.6 104.29C276.97 102.02 277.33 99.79 277.68 97.59C279.1 88.81 280.42 80.63 281.63 73.16C284.06 58.24 286.02 46.16 287.38 37.79C287.54 36.75 287.73 35.76 287.85 34.84C287.95 33.92 287.85 33.04 287.63 32.27C287.18 30.71 286.25 29.62 285.4 28.93C284.53 28.24 283.73 27.92 283.19 27.76C282.92 27.66 282.71 27.64 282.57 27.6C282.43 27.57 282.36 27.54 282.36 27.54H282.35Z" fill="#263238"/>
<path d="M229.5 27.5032L231.734 13.5913C231.972 12.1103 233.369 11.0991 234.851 11.3369L235.038 11.367C236.519 11.6047 237.53 13.0027 237.293 14.4837L235.059 28.3956C234.822 29.8766 233.424 30.8878 231.943 30.6501L231.755 30.62C230.274 30.3822 229.263 28.9843 229.5 27.5032Z" fill="#E0E0E0"/>
<path d="M231.78 30.62C231.82 30.55 231.08 30.55 230.31 29.72C229.95 29.31 229.62 28.66 229.65 27.88C229.73 27.11 229.94 26.16 230.1 25.15C230.45 23.08 230.86 20.67 231.31 18C231.53 16.65 231.76 15.24 232 13.77C232.09 13.08 232.44 12.46 233 12.04C233.57 11.63 234.28 11.48 235.01 11.63C235.71 11.74 236.34 12.17 236.7 12.76C237.08 13.36 237.15 14.04 236.99 14.76C236.76 16.23 236.54 17.64 236.33 18.99C235.92 21.67 235.55 24.09 235.24 26.16C235.17 26.67 235.09 27.15 235.03 27.62C234.95 28.08 234.93 28.52 234.79 28.88C234.52 29.61 233.98 30.09 233.49 30.34C232.46 30.82 231.77 30.54 231.78 30.62C231.78 30.64 231.93 30.69 232.24 30.74C232.55 30.78 233.02 30.77 233.58 30.54C234.12 30.31 234.75 29.81 235.08 29C235.25 28.59 235.28 28.14 235.37 27.69C235.45 27.23 235.53 26.74 235.62 26.24C235.97 24.17 236.38 21.76 236.83 19.09C237.05 17.74 237.28 16.33 237.52 14.86C237.69 14.13 237.63 13.19 237.16 12.49C236.72 11.77 235.95 11.24 235.09 11.11C234.28 10.94 233.34 11.11 232.67 11.62C231.98 12.11 231.55 12.92 231.46 13.7C231.23 15.17 231.01 16.58 230.8 17.93C230.39 20.61 230.02 23.03 229.71 25.1C229.57 26.13 229.4 27.02 229.34 27.88C229.34 28.76 229.73 29.45 230.15 29.87C230.57 30.3 231.02 30.48 231.32 30.56C231.62 30.64 231.79 30.63 231.79 30.62H231.78Z" fill="#263238"/>
<path d="M255.568 31.6868L257.801 17.7749C258.039 16.2939 259.437 15.2827 260.918 15.5204L261.106 15.5505C262.587 15.7883 263.598 17.1862 263.36 18.6673L261.127 32.5792C260.889 34.0602 259.491 35.0714 258.01 34.8336L257.823 34.8035C256.342 34.5658 255.33 33.1678 255.568 31.6868Z" fill="#E0E0E0"/>
<path d="M257.84 34.8C257.88 34.73 257.14 34.73 256.37 33.9C256.01 33.49 255.68 32.84 255.71 32.06C255.79 31.29 256 30.34 256.16 29.33C256.51 27.26 256.92 24.85 257.37 22.18C257.59 20.83 257.82 19.42 258.06 17.95C258.15 17.26 258.5 16.64 259.06 16.22C259.63 15.81 260.34 15.66 261.07 15.81C261.77 15.92 262.4 16.35 262.76 16.94C263.14 17.54 263.21 18.22 263.05 18.94C262.82 20.41 262.6 21.82 262.39 23.17C261.98 25.85 261.61 28.27 261.3 30.34C261.23 30.85 261.15 31.33 261.09 31.8C261.01 32.26 260.99 32.7 260.85 33.06C260.58 33.79 260.04 34.27 259.55 34.52C258.52 35 257.83 34.72 257.84 34.8C257.84 34.82 257.99 34.87 258.3 34.92C258.61 34.96 259.08 34.95 259.64 34.72C260.18 34.49 260.81 33.99 261.14 33.18C261.31 32.77 261.35 32.32 261.43 31.87C261.51 31.41 261.59 30.92 261.68 30.42C262.03 28.35 262.44 25.94 262.89 23.27C263.11 21.92 263.34 20.51 263.58 19.04C263.75 18.31 263.69 17.37 263.22 16.67C262.78 15.95 262.01 15.42 261.15 15.29C260.34 15.12 259.4 15.29 258.73 15.8C258.04 16.29 257.61 17.1 257.52 17.88C257.29 19.35 257.07 20.76 256.86 22.11C256.45 24.79 256.08 27.21 255.77 29.28C255.63 30.31 255.46 31.2 255.4 32.06C255.4 32.94 255.79 33.63 256.21 34.05C256.63 34.48 257.08 34.66 257.38 34.74C257.68 34.82 257.85 34.81 257.85 34.8H257.84Z" fill="#263238"/>
<path d="M420.47 331.64H274.42C268.886 331.64 264.4 336.126 264.4 341.66V388.44C264.4 393.974 268.886 398.46 274.42 398.46H420.47C426.004 398.46 430.49 393.974 430.49 388.44V341.66C430.49 336.126 426.004 331.64 420.47 331.64Z" fill="white"/>
<path d="M420.48 398.46C420.48 398.46 420.58 398.45 420.77 398.43C420.96 398.41 421.25 398.41 421.63 398.36C422.38 398.26 423.52 398.04 424.85 397.38C426.18 396.73 427.71 395.58 428.87 393.74C429.45 392.83 429.93 391.74 430.18 390.52C430.46 389.3 430.38 387.96 430.39 386.54C430.38 380.86 430.36 373.92 430.35 365.86C430.35 361.83 430.34 357.52 430.33 352.95C430.33 350.66 430.33 348.31 430.33 345.9C430.33 344.69 430.33 343.47 430.33 342.23C430.34 341 430.23 339.77 429.83 338.58C429.06 336.21 427.31 334.11 424.98 332.92C423.82 332.33 422.53 331.96 421.2 331.87C419.87 331.8 418.48 331.85 417.1 331.84C411.56 331.84 405.8 331.84 399.83 331.86C387.9 331.86 375.15 331.88 361.73 331.88C334.9 331.88 305.4 331.89 274.43 331.9C272.54 331.91 270.67 332.45 269.1 333.48C267.53 334.51 266.27 335.98 265.51 337.68C265.15 338.54 264.85 339.43 264.76 340.35C264.64 341.26 264.67 342.21 264.66 343.16C264.66 345.06 264.66 346.95 264.66 348.84C264.66 356.38 264.66 363.81 264.66 371.11C264.66 374.76 264.66 378.38 264.66 381.96C264.66 383.75 264.66 385.54 264.66 387.31C264.61 389.09 264.78 390.81 265.5 392.38C266.87 395.54 269.99 397.77 273.33 398.12C274.16 398.2 275.01 398.19 275.87 398.19C276.72 398.19 277.58 398.19 278.42 398.19C280.12 398.19 281.81 398.19 283.48 398.19C310.32 398.21 334.48 398.23 354.78 398.25C375.07 398.28 391.49 398.31 402.85 398.33C408.52 398.35 412.92 398.37 415.92 398.38C417.41 398.39 418.54 398.4 419.32 398.41C420.09 398.41 420.48 398.44 420.48 398.44C420.48 398.44 420.09 398.46 419.32 398.47C418.54 398.47 417.41 398.48 415.92 398.5C412.92 398.51 408.52 398.53 402.85 398.55C391.49 398.57 375.07 398.6 354.78 398.63C334.48 398.65 310.32 398.66 283.48 398.69C281.8 398.69 280.11 398.69 278.42 398.69C277.57 398.69 276.72 398.69 275.87 398.69C275.02 398.69 274.16 398.7 273.28 398.62C269.77 398.25 266.49 395.91 265.05 392.59C264.28 390.96 264.11 389.07 264.16 387.32C264.16 385.55 264.16 383.76 264.16 381.97C264.16 378.39 264.16 374.77 264.16 371.12C264.16 363.82 264.16 356.39 264.16 348.85C264.16 346.96 264.16 345.07 264.16 343.17C264.16 342.23 264.13 341.27 264.26 340.29C264.36 339.32 264.67 338.37 265.05 337.47C265.85 335.68 267.17 334.12 268.83 333.04C270.48 331.95 272.46 331.38 274.45 331.37C305.41 331.37 334.92 331.38 361.75 331.39C375.17 331.39 387.92 331.41 399.85 331.41C405.82 331.41 411.58 331.42 417.12 331.43C418.51 331.45 419.86 331.4 421.25 331.47C422.63 331.57 423.97 331.95 425.17 332.57C427.58 333.81 429.4 336 430.19 338.46C430.61 339.68 430.72 340.99 430.7 342.22C430.7 343.46 430.7 344.68 430.7 345.89C430.7 348.3 430.7 350.65 430.7 352.94C430.7 357.51 430.69 361.82 430.68 365.85C430.66 373.91 430.65 380.85 430.64 386.53C430.63 387.94 430.69 389.3 430.4 390.55C430.14 391.79 429.64 392.89 429.05 393.82C427.86 395.68 426.3 396.83 424.95 397.47C423.59 398.12 422.45 398.32 421.69 398.41C420.92 398.47 420.53 398.46 420.53 398.46H420.48Z" fill="#263238"/>
<path d="M406.89 379.48C400.12 379.48 394.61 373.97 394.61 367.2C394.61 360.43 400.12 354.92 406.89 354.92C413.66 354.92 419.17 360.43 419.17 367.2C419.17 373.97 413.66 379.48 406.89 379.48ZM406.89 356.92C401.22 356.92 396.61 361.53 396.61 367.2C396.61 372.87 401.22 377.48 406.89 377.48C412.56 377.48 417.17 372.87 417.17 367.2C417.17 361.53 412.56 356.92 406.89 356.92Z" fill="#3D73DD"/>
<path d="M380.83 375.58H338.4C334.65 375.58 331.6 372.54 331.6 368.78C331.6 365.03 334.64 361.98 338.4 361.98H380.83C384.58 361.98 387.63 365.02 387.63 368.78C387.63 372.53 384.59 375.58 380.83 375.58Z" fill="#E0E0E0"/>
<path d="M307.917 391.153C321.273 386.704 328.495 372.271 324.046 358.914C319.598 345.558 305.164 338.336 291.808 342.785C278.451 347.233 271.23 361.667 275.678 375.023C280.126 388.38 294.56 395.601 307.917 391.153Z" fill="white"/>
<path d="M325.3 368.63C325.3 368.63 325.29 368.49 325.29 368.22C325.29 367.93 325.29 367.53 325.29 367.01C325.29 366.74 325.29 366.44 325.29 366.12C325.28 365.79 325.23 365.44 325.2 365.05C325.13 364.28 325.07 363.38 324.84 362.39C324.52 360.4 323.75 358.02 322.46 355.47C321.16 352.93 319.22 350.23 316.49 347.88C313.77 345.54 310.28 343.48 306.16 342.47C305.12 342.25 304.08 341.97 302.99 341.89C302.45 341.84 301.9 341.75 301.35 341.72C300.8 341.72 300.24 341.71 299.67 341.7C299.39 341.7 299.11 341.68 298.82 341.7L297.97 341.78C297.4 341.84 296.83 341.87 296.25 341.95C295.12 342.18 293.95 342.33 292.82 342.72C291.66 343.01 290.56 343.5 289.43 343.95C288.88 344.2 288.34 344.51 287.8 344.79C287.24 345.05 286.73 345.4 286.21 345.74C285.14 346.38 284.18 347.2 283.19 347.99C282.28 348.87 281.33 349.74 280.53 350.76C278.89 352.75 277.43 354.98 276.47 357.48C275.48 359.96 274.86 362.62 274.65 365.36C274.51 368.1 274.77 370.82 275.43 373.41C276.06 376.01 277.22 378.42 278.59 380.6C279.25 381.71 280.09 382.69 280.87 383.69C281.75 384.6 282.59 385.54 283.58 386.31C284.05 386.72 284.52 387.12 285.04 387.46C285.55 387.81 286.04 388.18 286.55 388.5C287.61 389.1 288.64 389.73 289.75 390.16C290.82 390.69 291.96 390.99 293.05 391.37C293.61 391.52 294.18 391.63 294.73 391.76L295.56 391.94C295.84 392 296.12 392.01 296.4 392.05C296.96 392.12 297.52 392.18 298.07 392.25C298.62 392.29 299.18 392.28 299.72 392.29C300.81 392.36 301.89 392.21 302.94 392.13C307.16 391.66 310.89 390.07 313.89 388.1C316.9 386.12 319.18 383.7 320.8 381.34C322.41 378.98 323.48 376.72 324.06 374.78C324.42 373.83 324.59 372.95 324.76 372.19C324.84 371.81 324.94 371.46 324.99 371.14C325.03 370.82 325.07 370.52 325.1 370.25C325.17 369.73 325.22 369.33 325.26 369.05C325.3 368.78 325.33 368.64 325.33 368.64C325.33 368.64 325.33 368.78 325.3 369.05C325.27 369.34 325.23 369.74 325.18 370.26C325.15 370.53 325.12 370.82 325.09 371.15C325.04 371.48 324.95 371.83 324.88 372.21C324.72 372.97 324.56 373.86 324.21 374.82C323.65 376.77 322.59 379.06 320.99 381.46C319.37 383.85 317.09 386.3 314.05 388.32C311.03 390.32 307.26 391.95 302.98 392.44C301.91 392.52 300.83 392.68 299.72 392.61C299.17 392.59 298.61 392.61 298.05 392.57C297.49 392.51 296.93 392.44 296.36 392.38C296.08 392.34 295.79 392.33 295.51 392.27L294.66 392.09C294.1 391.96 293.52 391.86 292.95 391.7C291.84 391.32 290.68 391.02 289.6 390.48C288.47 390.04 287.43 389.4 286.35 388.8C285.83 388.47 285.33 388.1 284.81 387.75C284.28 387.41 283.81 387 283.33 386.59C282.33 385.81 281.48 384.86 280.58 383.93C279.78 382.92 278.93 381.93 278.26 380.8C276.87 378.58 275.69 376.14 275.05 373.5C274.38 370.87 274.11 368.11 274.25 365.32C274.47 362.54 275.1 359.84 276.1 357.32C277.08 354.78 278.56 352.52 280.23 350.5C281.05 349.47 282.01 348.59 282.94 347.7C283.95 346.9 284.92 346.07 286.01 345.42C286.54 345.07 287.06 344.73 287.63 344.46C288.19 344.18 288.73 343.87 289.29 343.61C290.44 343.15 291.56 342.66 292.73 342.36C293.88 341.97 295.06 341.82 296.21 341.59C296.79 341.51 297.38 341.48 297.95 341.43L298.81 341.36C299.1 341.34 299.38 341.36 299.67 341.36C300.24 341.36 300.81 341.38 301.37 341.39C301.93 341.42 302.48 341.51 303.03 341.57C304.14 341.65 305.19 341.94 306.24 342.16C310.41 343.2 313.94 345.3 316.68 347.68C319.43 350.08 321.37 352.81 322.67 355.39C323.95 357.97 324.71 360.38 325.01 362.39C325.23 363.38 325.28 364.29 325.34 365.07C325.37 365.46 325.41 365.82 325.41 366.15C325.41 366.48 325.39 366.78 325.39 367.05C325.37 367.57 325.36 367.98 325.35 368.26C325.34 368.53 325.32 368.67 325.32 368.67L325.3 368.63Z" fill="#263238"/>
<path d="M278.32 380.18L289.54 376.78L307.78 379.59L320.03 382.32C320.03 382.32 313.24 392.38 299.81 392.25C292.67 392.18 287.13 389.31 283.54 386.27C279.98 383.26 278.31 380.17 278.31 380.17L278.32 380.18Z" fill="#3D73DD"/>
<path d="M314.31 366.45C314.25 363.02 313.56 355.98 312.86 349.61C312.11 342.76 306.22 337.64 299.33 337.84L298.65 337.86C291.28 338.51 287.72 345.12 288.57 352.47L290.16 377.99L300.37 384.49L307.45 381.51L307.37 374.86C307.37 374.86 314.43 373.55 314.31 366.46V366.45Z" fill="#FFBF9D"/>
<path d="M310.39 356.46C310.42 356.99 310 357.46 309.44 357.51C308.88 357.56 308.4 357.16 308.37 356.63C308.34 356.1 308.76 355.63 309.32 355.58C309.88 355.53 310.36 355.93 310.39 356.46Z" fill="#263238"/>
<path d="M311.53 352.74C311.41 352.88 310.62 352.33 309.53 352.36C308.44 352.38 307.66 352.96 307.54 352.83C307.48 352.77 307.6 352.53 307.94 352.27C308.28 352.01 308.85 351.74 309.53 351.73C310.21 351.71 310.79 351.95 311.12 352.19C311.46 352.44 311.58 352.67 311.52 352.73L311.53 352.74Z" fill="#263238"/>
<path d="M300.36 356.46C300.39 356.99 299.97 357.46 299.41 357.51C298.85 357.56 298.37 357.16 298.34 356.63C298.31 356.1 298.73 355.63 299.29 355.58C299.85 355.53 300.33 355.93 300.36 356.46Z" fill="#263238"/>
<path d="M300.66 352.75C300.55 352.9 299.71 352.44 298.64 352.59C297.56 352.73 296.84 353.39 296.71 353.28C296.64 353.23 296.74 352.98 297.05 352.68C297.35 352.38 297.9 352.06 298.57 351.97C299.24 351.88 299.84 352.05 300.2 352.26C300.57 352.47 300.71 352.69 300.66 352.76V352.75Z" fill="#263238"/>
<path d="M304.92 361.6C304.92 361.54 305.59 361.4 306.68 361.23C306.96 361.19 307.22 361.13 307.26 360.94C307.32 360.74 307.19 360.44 307.05 360.12C306.77 359.45 306.47 358.76 306.17 358.02C304.94 355.04 304.04 352.58 304.16 352.53C304.28 352.48 305.38 354.86 306.61 357.84C306.91 358.58 307.19 359.28 307.46 359.95C307.57 360.26 307.77 360.62 307.64 361.04C307.57 361.25 307.37 361.41 307.19 361.46C307.01 361.52 306.86 361.53 306.72 361.54C305.62 361.63 304.93 361.66 304.93 361.59L304.92 361.6Z" fill="#263238"/>
<path d="M300.67 348.05C300.57 348.35 299.48 348.24 298.2 348.43C296.92 348.6 295.9 349 295.72 348.74C295.64 348.61 295.81 348.33 296.22 348.03C296.62 347.73 297.28 347.44 298.04 347.33C298.81 347.22 299.51 347.33 299.98 347.5C300.45 347.68 300.7 347.9 300.66 348.04L300.67 348.05Z" fill="#263238"/>
<path d="M311.23 348.53C311.05 348.78 310.29 348.55 309.38 348.56C308.48 348.54 307.72 348.77 307.53 348.52C307.45 348.4 307.56 348.15 307.89 347.9C308.21 347.66 308.76 347.45 309.38 347.45C310 347.45 310.55 347.66 310.87 347.9C311.2 348.15 311.31 348.4 311.23 348.52V348.53Z" fill="#263238"/>
<path d="M289.3 357.7C289.18 357.65 284.39 356.4 284.68 361.24C284.98 366.08 289.78 364.79 289.78 364.65C289.78 364.51 289.3 357.7 289.3 357.7Z" fill="#FFBF9D"/>
<path d="M288.18 362.9C288.18 362.9 288.1 362.96 287.96 363.04C287.82 363.11 287.59 363.17 287.33 363.09C286.81 362.93 286.33 362.15 286.25 361.28C286.21 360.84 286.28 360.41 286.41 360.06C286.54 359.7 286.75 359.44 287.01 359.37C287.26 359.3 287.45 359.44 287.52 359.57C287.59 359.7 287.57 359.8 287.59 359.81C287.6 359.82 287.69 359.72 287.64 359.52C287.61 359.43 287.55 359.31 287.43 359.23C287.31 359.14 287.13 359.1 286.96 359.14C286.59 359.19 286.27 359.55 286.12 359.94C285.95 360.33 285.87 360.81 285.91 361.31C286 362.28 286.56 363.17 287.27 363.33C287.62 363.4 287.89 363.28 288.03 363.15C288.17 363.02 288.19 362.91 288.17 362.9H288.18Z" fill="#FF9A6C"/>
<path d="M313.4 341.31C313.16 340.38 312.44 339.5 311.48 339.38C311.53 339.23 310.48 338.73 309.67 338.16C308.86 337.59 308.69 336.24 307.95 336.91C307.97 335.43 306.12 334.29 304.8 334.97C304.83 334.11 303.56 333.82 302.73 333.61C301.9 333.39 301.58 333.27 301.19 334.03C300.13 332.32 297.28 332.17 296.04 333.76C294.09 333.12 291.73 334.25 290.99 336.17C289.41 336.3 287.97 337.49 287.55 339.02C286.54 339.13 286.3 339.93 285.89 340.87C285.48 341.8 284.92 342.84 285.52 343.66C284.31 344.29 284.11 346.24 285.17 347.09C284.9 347.23 284.66 347.44 284.48 347.68C283.46 348.32 283.16 349.9 283.91 350.85C283.18 351.44 282.88 352.52 283.21 353.4C283.54 354.28 284.48 354.9 285.42 354.85C284.64 355.99 285.65 357.51 286.24 357.84C286.24 357.84 288.22 357 288.56 358.46C288.54 358.48 288.55 358.47 288.56 358.46C288.45 359.08 289.21 359.64 289.78 359.37C290.36 359.11 290.67 358.49 290.99 357.95C291.36 357.32 291.8 356.71 291.95 356C292.11 355.29 291.88 354.43 291.23 354.11C292.06 353.81 292.58 352.94 292.71 352.07C292.84 351.2 292.66 350.31 292.48 349.45C292.21 348.17 291.95 346.9 291.68 345.63C293.44 345.54 295.09 344.38 295.79 342.76C297.07 343.69 299.16 343.12 299.79 341.66C300.4 343.38 302.53 344.39 304.25 343.77C304.09 344.78 305.91 345.66 306.91 345.9C307.9 346.14 309.12 345.4 309.12 345.4C309.12 345.4 310.85 346.36 311.77 345.96C312.67 345.57 313.87 344.37 313.24 343.42C313.24 343.42 313.62 342.24 313.38 341.31H313.4Z" fill="#263238"/>
<path d="M304.17 334.86C304.17 334.86 304.01 334.67 303.61 334.56C303.42 334.51 303.16 334.5 302.9 334.62C302.65 334.74 302.4 335 302.33 335.34L302.27 335.62L302.12 335.38C301.85 334.94 301.27 334.57 300.6 334.58C299.95 334.58 299.23 335.09 299.03 335.84L298.95 336.16L298.74 335.9C298.36 335.43 297.71 335.12 297.04 335.14C296.37 335.14 295.71 335.54 295.35 336.15C295.2 336.39 295.1 336.67 295.07 336.94L295.04 337.14L294.85 337.1C293.91 336.89 292.9 337.45 292.57 338.25C292.22 339.06 292.46 339.99 292.98 340.51L293.17 340.7L292.9 340.75C292.26 340.88 291.76 341.28 291.47 341.72C291.17 342.16 291.09 342.64 291.1 343.02C291.13 343.79 291.43 344.17 291.39 344.19C291.38 344.19 291.3 344.11 291.2 343.93C291.1 343.74 290.97 343.44 290.94 343.03C290.91 342.63 290.97 342.1 291.28 341.6C291.58 341.1 292.12 340.64 292.85 340.47L292.78 340.72C292.17 340.13 291.87 339.08 292.27 338.12C292.66 337.16 293.81 336.51 294.94 336.75L294.72 336.9C294.76 336.57 294.88 336.25 295.05 335.96C295.47 335.25 296.26 334.78 297.05 334.78C297.83 334.77 298.57 335.12 299.02 335.68L298.73 335.74C298.98 334.83 299.83 334.27 300.62 334.27C301.41 334.27 302.04 334.73 302.34 335.24L302.13 335.27C302.24 334.84 302.55 334.56 302.85 334.44C303.16 334.31 303.46 334.35 303.67 334.43C303.88 334.51 304.02 334.62 304.09 334.7C304.17 334.78 304.19 334.84 304.18 334.85L304.17 334.86Z" fill="#455A64"/>
<path d="M314.11 362.57C313.37 362.03 312.14 362.43 311.87 363.31C311.46 362.74 310.71 362.43 310.01 362.55C309.31 362.67 308.71 363.21 308.52 363.89C308.2 362.86 306.58 362.58 305.94 363.45C305.68 363.02 305.11 362.79 304.62 362.92C304.68 362.45 304.42 361.95 304 361.72C303.58 361.49 303.03 361.55 302.66 361.85C302.12 360.87 300.61 360.62 299.78 361.37C299.64 360.92 299.18 360.59 298.71 360.61C298.24 360.63 297.8 360.99 297.7 361.45C297.24 360.86 296.36 360.63 295.67 360.92C295.67 360.22 294.88 359.63 294.21 359.85C294.38 359.25 293.5 358.98 293.05 358.55C292.85 358.36 292.72 358.1 292.5 357.92C292.28 357.75 291.91 357.71 291.77 357.95C291.89 357.47 291.59 356.93 291.12 356.77C290.66 356.61 290.09 356.85 289.88 357.3C289.76 357.56 289.76 357.87 289.72 358.15C289.59 359.08 289.06 360.18 289.74 360.84C289.86 360.96 290.01 361.05 290.06 361.21C290.15 361.48 289.88 361.74 289.86 362.02C289.84 362.35 290.14 362.6 290.27 362.9C290.47 363.34 290.29 363.86 290.25 364.34C290.22 364.83 290.49 365.44 290.98 365.39C290.62 366.1 290.86 367.06 291.52 367.5C291.14 368.32 291.63 369.42 292.5 369.69C292.18 369.95 292.2 370.48 292.44 370.81C292.68 371.15 293.06 371.35 293.43 371.53C293.09 371.71 293.05 372.21 293.26 372.53C293.47 372.85 293.85 373.01 294.21 373.11C294.37 373.15 294.54 373.2 294.63 373.33C294.8 373.58 294.57 373.92 294.62 374.23C294.69 374.69 295.34 374.83 295.54 375.25C295.71 375.63 295.49 376.16 295.79 376.45C295.99 376.64 296.3 376.6 296.55 376.69C297 376.85 297.21 377.36 297.5 377.75C298.05 378.48 298.97 378.79 299.85 379.02C300.3 379.13 300.75 379.23 301.21 379.32C302.12 379.49 303.03 379.6 303.95 379.71C304.4 379.76 304.96 379.77 305.2 379.38C305.84 380.16 307.28 379.99 307.72 379.08C308.54 379.3 309.39 378.95 310.17 378.62C310.44 378.5 310.71 378.39 310.98 378.27C311.78 377.92 312.67 377.47 312.91 376.63C313.96 376.48 314.65 375.17 314.17 374.22C314.54 374.32 314.89 373.96 314.95 373.58C315.01 373.2 314.87 372.83 314.81 372.46C314.53 370.94 315.34 369.39 315.13 367.86C314.98 366.79 314.34 365.73 314.65 364.69C314.71 364.48 314.82 364.27 314.8 364.04C314.78 363.82 314.58 363.59 314.37 363.65C314.64 363.04 314.03 362.24 313.37 362.34" fill="#263238"/>
<path d="M301.31 362.69C301.49 362.67 301.52 363.86 302.56 364.67C303.6 365.48 304.85 365.31 304.87 365.48C304.89 365.55 304.6 365.72 304.06 365.75C303.54 365.78 302.77 365.64 302.14 365.14C301.51 364.64 301.22 363.96 301.17 363.48C301.11 362.99 301.23 362.69 301.32 362.69H301.31Z" fill="white"/>
<path d="M294.81 370.78C294.87 370.76 294.37 369.69 294.35 368.27C294.31 366.85 294.76 365.76 294.7 365.75C294.68 365.75 294.54 366 294.4 366.45C294.26 366.9 294.14 367.55 294.16 368.28C294.18 369 294.32 369.65 294.48 370.09C294.64 370.54 294.79 370.79 294.81 370.78Z" fill="#455A64"/>
<path d="M293.7 369.07C293.7 369.07 293.55 368.88 293.43 368.53C293.3 368.18 293.26 367.67 293.31 367.1C293.4 365.95 293.71 365.06 293.66 365.05C293.62 365.03 293.21 365.91 293.12 367.09C293.07 367.67 293.13 368.23 293.3 368.59C293.47 368.95 293.69 369.09 293.7 369.08V369.07Z" fill="#455A64"/>
<path d="M292.51 368.09C292.57 368.07 292.04 367.19 292 365.98C291.94 364.77 292.39 363.85 292.33 363.83C292.31 363.83 292.17 364.03 292.03 364.42C291.89 364.8 291.78 365.37 291.8 365.99C291.83 366.62 291.99 367.17 292.16 367.54C292.33 367.91 292.49 368.11 292.5 368.1L292.51 368.09Z" fill="#455A64"/>
<path d="M312.24 375.34C312.24 375.34 312.56 375.28 312.92 374.91C313.27 374.55 313.59 373.91 313.77 373.18C313.96 372.44 313.97 371.75 313.93 371.26C313.89 370.77 313.8 370.47 313.78 370.48C313.72 370.48 313.96 371.7 313.59 373.14C313.42 373.86 313.14 374.47 312.83 374.83C312.53 375.2 312.24 375.32 312.26 375.35L312.24 375.34Z" fill="#455A64"/>
<path d="M311.21 375.08C311.21 375.08 311.45 374.98 311.76 374.7C312.06 374.42 312.42 373.95 312.66 373.36C312.89 372.77 312.95 372.18 312.92 371.77C312.89 371.36 312.8 371.11 312.78 371.12C312.75 371.12 312.78 371.38 312.78 371.78C312.78 372.18 312.7 372.73 312.48 373.3C312.26 373.87 311.93 374.32 311.67 374.62C311.4 374.92 311.2 375.07 311.22 375.1L311.21 375.08Z" fill="#455A64"/>
<path d="M313.02 345.34C313.02 345.34 311.39 342.8 308.23 341.87C302.37 340.13 294.13 339.47 285.44 348.04L284.17 348.61C284.17 348.61 283.91 345.69 284.35 343.53C284.65 342.09 287.28 333.68 296.67 332.79C296.67 332.79 311.03 330.45 313.01 345.34H313.02Z" fill="#455A64"/>
<g opacity="0.3">
<path d="M313.02 345.34C313.02 345.34 311.39 342.8 308.23 341.87C302.37 340.13 294.13 339.47 285.44 348.04L284.17 348.61C284.17 348.61 283.91 345.69 284.35 343.53C284.65 342.09 287.28 333.68 296.67 332.79C296.67 332.79 311.03 330.45 313.01 345.34H313.02Z" fill="black"/>
</g>
<path d="M285.44 348.04C289.01 344.13 293.6 341.89 298.43 340.09C303.26 338.3 310.87 337.11 316.01 336.82C317.55 336.73 319.15 336.71 320.59 337.27C322.03 337.84 323.28 339.13 323.35 340.67C323.43 342.6 319.59 344.77 317.83 345.57C316.07 346.37 312.47 347.77 312.47 347.77C312.47 347.77 311.51 343.38 308.04 342.13C300.84 339.54 285.18 348.17 285.44 348.03V348.04Z" fill="#455A64"/>
<path d="M313.45 342.5C313.03 341.33 311.7 340.56 310.47 340.77C310.76 340.42 310.71 339.88 310.45 339.51C310.18 339.15 309.74 338.94 309.3 338.84C307.75 338.49 306.01 339.39 305.41 340.87C304.69 340.16 303.63 339.74 302.26 340.01C300.91 340.28 300.1 341.44 300.1 342.26C300.1 343.18 300.57 343.72 301.37 344.19C302.17 344.66 303.41 344.32 304.22 343.88C304.54 344.76 305.31 345.47 306.22 345.71C307.13 345.95 308.15 345.72 308.87 345.12C309.67 346.08 311.18 346.35 312.26 345.73C313.34 345.11 313.87 343.67 313.45 342.5Z" fill="#263238"/>
<path d="M420.47 240.03H270.88C265.346 240.03 260.86 244.516 260.86 250.05V298.25C260.86 303.784 265.346 308.27 270.88 308.27H420.47C426.004 308.27 430.49 303.784 430.49 298.25V250.05C430.49 244.516 426.004 240.03 420.47 240.03Z" fill="white"/>
<path d="M420.48 308.27C420.48 308.27 420.58 308.26 420.78 308.24C420.98 308.22 421.27 308.22 421.66 308.17C422.43 308.07 423.59 307.84 424.95 307.15C426.3 306.48 427.85 305.28 428.99 303.37C429.56 302.42 430.01 301.3 430.24 300.04C430.48 298.79 430.38 297.41 430.4 295.96C430.39 290.16 430.37 283.06 430.36 274.82C430.36 270.7 430.35 266.29 430.34 261.62C430.34 259.28 430.34 256.88 430.34 254.41C430.34 253.18 430.34 251.93 430.34 250.66C430.35 249.4 430.25 248.14 429.83 246.93C429.04 244.51 427.21 242.37 424.81 241.21C423.62 240.63 422.29 240.28 420.93 240.23C419.56 240.19 418.15 240.23 416.74 240.21C411.08 240.21 405.19 240.21 399.09 240.23C386.89 240.23 373.86 240.25 360.15 240.25C332.72 240.25 302.57 240.26 270.92 240.27C269.96 240.29 269 240.42 268.07 240.69C267.16 240.98 266.28 241.39 265.48 241.92C264.69 242.47 263.98 243.11 263.36 243.84C262.76 244.59 262.27 245.41 261.89 246.28C261.53 247.16 261.31 248.09 261.19 249.03C261.12 249.97 261.14 250.95 261.14 251.92C261.14 253.86 261.14 255.8 261.14 257.72C261.14 265.43 261.14 273.02 261.14 280.49C261.14 284.22 261.14 287.92 261.14 291.58C261.14 293.41 261.14 295.23 261.14 297.05C261.09 298.87 261.25 300.63 262.01 302.23C263.41 305.46 266.68 307.69 270.09 307.95C273.56 308.03 277.06 307.98 280.48 308C307.91 308.02 332.61 308.04 353.36 308.06C374.1 308.09 390.88 308.12 402.49 308.14C408.28 308.16 412.78 308.18 415.85 308.19C417.37 308.2 418.53 308.21 419.32 308.22C420.1 308.22 420.5 308.25 420.5 308.25C420.5 308.25 420.1 308.27 419.32 308.28C418.53 308.28 417.37 308.29 415.85 308.31C412.79 308.32 408.29 308.34 402.49 308.36C390.88 308.38 374.1 308.41 353.36 308.44C332.61 308.46 307.91 308.47 280.48 308.5C277.04 308.48 273.6 308.55 270.05 308.46C266.46 308.19 263.03 305.85 261.55 302.46C260.75 300.8 260.58 298.86 260.64 297.07C260.64 295.26 260.64 293.43 260.64 291.6C260.64 287.94 260.64 284.24 260.64 280.51C260.64 273.05 260.64 265.45 260.64 257.74C260.64 255.81 260.64 253.88 260.64 251.94C260.64 250.97 260.62 250.01 260.69 249C260.81 248.01 261.04 247.03 261.42 246.1C261.82 245.18 262.33 244.31 262.96 243.53C263.61 242.76 264.36 242.08 265.19 241.51C266.03 240.95 266.96 240.52 267.92 240.22C268.89 239.93 269.9 239.8 270.92 239.78C302.57 239.78 332.72 239.79 360.15 239.8C373.86 239.8 386.9 239.82 399.09 239.82C405.19 239.82 411.08 239.83 416.74 239.83C418.16 239.84 419.55 239.81 420.95 239.86C422.36 239.92 423.74 240.28 424.98 240.89C427.47 242.1 429.36 244.33 430.18 246.84C430.61 248.09 430.72 249.42 430.7 250.69C430.7 251.96 430.7 253.2 430.7 254.44C430.7 256.91 430.7 259.31 430.7 261.65C430.7 266.32 430.69 270.73 430.68 274.85C430.66 283.09 430.65 290.18 430.64 295.99C430.62 297.43 430.71 298.82 430.46 300.1C430.22 301.38 429.75 302.51 429.17 303.47C428 305.4 426.41 306.6 425.04 307.27C423.66 307.94 422.49 308.16 421.71 308.25C420.93 308.31 420.53 308.3 420.53 308.3L420.48 308.27Z" fill="#263238"/>
<path d="M405.56 287.84C399.21 287.38 394.44 281.87 394.9 275.52C395.36 269.17 400.87 264.4 407.22 264.86C413.57 265.32 418.34 270.83 417.88 277.18C417.42 283.53 411.91 288.3 405.56 287.85V287.84Z" fill="#3D73DD"/>
<path d="M405.68 282.4L398.77 277.02L400.65 274.61L405.28 278.22L411.92 270.63L414.22 272.65L405.68 282.4Z" fill="white"/>
<path d="M379.77 284.91H336.43C332.6 284.91 329.49 281.8 329.49 277.97C329.49 274.14 332.6 271.03 336.43 271.03H379.77C383.6 271.03 386.71 274.14 386.71 277.97C386.71 281.8 383.6 284.91 379.77 284.91Z" fill="#E0E0E0"/>
<path d="M313.395 294.321C324.564 285.27 326.281 268.878 317.23 257.709C308.179 246.54 291.788 244.823 280.619 253.874C269.45 262.925 267.733 279.316 276.784 290.485C285.835 301.654 302.226 303.372 313.395 294.321Z" fill="white"/>
<path d="M273.89 285.73C273.89 285.73 273.97 285.85 274.11 286.09C274.26 286.35 274.46 286.7 274.73 287.17C274.87 287.41 275.02 287.67 275.18 287.97C275.36 288.25 275.58 288.55 275.81 288.88C276.27 289.53 276.78 290.3 277.49 291.06C278.8 292.67 280.7 294.39 283.16 296C285.62 297.6 288.73 299 292.37 299.7C295.99 300.38 300.16 300.43 304.34 299.22C305.37 298.88 306.45 298.6 307.46 298.11C307.97 297.88 308.5 297.68 309.01 297.42C309.51 297.14 310.01 296.86 310.51 296.58C310.76 296.43 311.02 296.31 311.26 296.15L311.98 295.65C312.46 295.31 312.95 294.99 313.42 294.62C314.31 293.83 315.28 293.1 316.08 292.18C316.96 291.33 317.69 290.33 318.46 289.35C318.82 288.84 319.14 288.3 319.48 287.77C319.84 287.25 320.13 286.68 320.41 286.11C321.04 284.99 321.47 283.77 321.95 282.56C322.31 281.31 322.71 280.05 322.9 278.73C323.34 276.12 323.5 273.38 323.07 270.67C322.68 267.96 321.86 265.27 320.65 262.72C319.37 260.21 317.74 257.92 315.83 255.95C315.33 255.48 314.84 255 314.35 254.53C313.81 254.11 313.28 253.69 312.75 253.28C312.49 253.06 312.21 252.87 311.92 252.7L311.07 252.16L310.22 251.62L309.33 251.17C308.17 250.52 306.93 250.07 305.71 249.59C304.46 249.23 303.23 248.83 301.96 248.64C301.33 248.52 300.71 248.4 300.08 248.36C299.45 248.31 298.82 248.23 298.2 248.21C296.95 248.22 295.71 248.19 294.5 248.37C293.28 248.45 292.11 248.76 290.94 248.99C290.36 249.14 289.81 249.34 289.24 249.51L288.4 249.77C288.12 249.86 287.86 249.99 287.6 250.1C287.07 250.33 286.54 250.56 286.02 250.78C285.51 251.02 285.02 251.32 284.53 251.59C283.52 252.09 282.64 252.77 281.75 253.38C278.24 255.96 275.73 259.29 274.07 262.58C272.41 265.89 271.62 269.21 271.39 272.13C271.17 275.06 271.37 277.62 271.85 279.64C272.02 280.67 272.32 281.54 272.55 282.3C272.67 282.68 272.77 283.04 272.88 283.35C273.01 283.66 273.13 283.94 273.23 284.19C273.43 284.69 273.59 285.07 273.71 285.34C273.82 285.6 273.86 285.74 273.86 285.74C273.86 285.74 273.79 285.61 273.67 285.36C273.55 285.09 273.38 284.71 273.16 284.22C273.05 283.97 272.92 283.69 272.79 283.38C272.67 283.06 272.57 282.71 272.44 282.33C272.19 281.57 271.88 280.69 271.7 279.66C271.2 277.64 270.97 275.06 271.17 272.11C271.39 269.16 272.16 265.8 273.82 262.45C275.49 259.12 278 255.74 281.55 253.12C282.46 252.5 283.34 251.81 284.36 251.3C284.86 251.03 285.35 250.73 285.87 250.48C286.4 250.25 286.93 250.02 287.47 249.79C287.74 249.68 288 249.55 288.28 249.45L289.13 249.18C289.7 249.01 290.26 248.8 290.85 248.65C292.03 248.42 293.22 248.1 294.46 248.02C295.69 247.84 296.94 247.87 298.21 247.85C298.84 247.87 299.48 247.95 300.12 248C300.76 248.03 301.39 248.15 302.03 248.28C303.32 248.47 304.56 248.87 305.84 249.24C307.07 249.73 308.33 250.18 309.51 250.84L310.41 251.3L311.27 251.84L312.13 252.39C312.42 252.57 312.71 252.76 312.97 252.98C313.51 253.4 314.05 253.83 314.6 254.25C315.1 254.73 315.6 255.21 316.11 255.69C318.05 257.68 319.71 260 321.01 262.55C322.24 265.13 323.07 267.86 323.46 270.61C323.89 273.37 323.73 276.14 323.28 278.79C323.08 280.13 322.67 281.4 322.31 282.67C321.82 283.9 321.38 285.14 320.75 286.27C320.46 286.85 320.17 287.43 319.81 287.95C319.46 288.49 319.13 289.04 318.77 289.55C317.99 290.55 317.24 291.56 316.35 292.42C315.53 293.35 314.55 294.1 313.65 294.89C313.17 295.26 312.67 295.58 312.19 295.93L311.46 296.44C311.21 296.6 310.95 296.73 310.69 296.88C310.18 297.16 309.67 297.45 309.16 297.73C308.65 297.99 308.11 298.19 307.59 298.43C306.56 298.92 305.48 299.21 304.43 299.55C300.19 300.76 295.98 300.7 292.32 299.99C288.65 299.27 285.52 297.83 283.05 296.21C280.58 294.57 278.68 292.82 277.39 291.18C276.68 290.41 276.18 289.63 275.73 288.97C275.51 288.64 275.29 288.34 275.11 288.05C274.95 287.75 274.8 287.48 274.67 287.24C274.42 286.77 274.22 286.4 274.08 286.14C273.95 285.89 273.89 285.76 273.89 285.76V285.73Z" fill="#263238"/>
<path d="M280.99 294.43C280.99 294.43 282.23 294.02 286.51 292.7C290.79 291.38 304.84 293.35 304.84 293.35L312.88 295.01C312.88 295.01 307.16 300.9 296.17 300.15C285.18 299.4 280.97 294.43 280.97 294.43H280.99Z" fill="#3D73DD"/>
<path d="M310.98 260.97C312.59 261.1 314.19 259.86 314.47 258.27C314.76 256.68 313.69 254.97 312.14 254.52C313.1 253.46 313.29 251.78 312.59 250.54C311.89 249.3 310.35 248.59 308.95 248.86C308.84 247.46 307.95 246.14 306.69 245.51C305.43 244.88 303.84 244.97 302.66 245.73C301.06 244.45 298.55 244.49 296.99 245.82C295.61 245.62 294.15 246.4 293.55 247.65C292.95 248.91 293.27 250.53 294.3 251.47" fill="#263238"/>
<path d="M305.66 293.88L305.54 288.1C305.54 288.1 313.28 286.67 313.11 279.18C313.03 275.56 312.25 268.12 311.48 261.4C310.64 254.18 304.4 248.81 297.13 249.07L296.41 249.1C288.64 249.83 284.91 256.83 285.85 264.58L286.97 292.7C286.97 292.7 296.79 297.92 298.99 297.16C301.19 296.4 305.66 293.88 305.66 293.88Z" fill="#AE7461"/>
<path d="M305.53 288.1C305.53 288.1 301.12 288.54 295.98 285.55C295.98 285.55 298.09 291.03 305.53 290.1V288.1Z" fill="#6F4439"/>
<path d="M308.44 268.87C308.48 269.43 308.03 269.93 307.45 269.98C306.86 270.03 306.35 269.62 306.31 269.05C306.27 268.49 306.71 267.99 307.3 267.93C307.89 267.88 308.4 268.29 308.44 268.86V268.87Z" fill="#263238"/>
<path d="M309.99 265.13C309.86 265.27 309.03 264.7 307.88 264.75C306.73 264.78 305.91 265.4 305.78 265.26C305.72 265.2 305.84 264.94 306.2 264.66C306.55 264.38 307.16 264.1 307.88 264.08C308.6 264.06 309.21 264.3 309.56 264.56C309.92 264.82 310.05 265.07 309.99 265.13Z" fill="#263238"/>
<path d="M298.07 269.04C298.11 269.6 297.66 270.1 297.08 270.15C296.49 270.2 295.98 269.79 295.94 269.22C295.9 268.66 296.35 268.16 296.93 268.11C297.52 268.06 298.03 268.47 298.07 269.04Z" fill="#263238"/>
<path d="M298.69 265.74C298.56 265.88 297.73 265.31 296.58 265.36C295.43 265.39 294.61 266.01 294.48 265.87C294.42 265.81 294.54 265.55 294.9 265.27C295.25 264.99 295.86 264.71 296.58 264.69C297.3 264.67 297.91 264.91 298.26 265.17C298.62 265.43 298.75 265.68 298.69 265.74Z" fill="#263238"/>
<path d="M303.16 274.13C303.16 274.06 303.86 273.92 305.02 273.73C305.31 273.69 305.59 273.62 305.63 273.42C305.69 273.21 305.56 272.89 305.4 272.56C305.1 271.86 304.78 271.12 304.45 270.35C303.13 267.21 302.17 264.62 302.3 264.57C302.43 264.52 303.6 267.02 304.91 270.17C305.23 270.95 305.53 271.68 305.82 272.39C305.94 272.72 306.15 273.09 306.01 273.54C305.94 273.76 305.73 273.93 305.54 273.99C305.35 274.05 305.19 274.06 305.04 274.08C303.88 274.18 303.15 274.21 303.15 274.15L303.16 274.13Z" fill="#263238"/>
<path d="M298.9 261.81C298.76 262.11 297.76 261.83 296.55 261.83C295.34 261.81 294.32 262.07 294.2 261.77C294.15 261.63 294.35 261.36 294.78 261.11C295.21 260.86 295.86 260.66 296.59 260.66C297.32 260.66 297.96 260.88 298.37 261.14C298.78 261.4 298.97 261.67 298.91 261.81H298.9Z" fill="#263238"/>
<path d="M309.99 261.06C309.76 261.33 308.8 261.09 307.66 261.12C306.52 261.12 305.56 261.37 305.33 261.1C305.23 260.97 305.37 260.7 305.78 260.44C306.19 260.18 306.88 259.95 307.66 259.95C308.44 259.95 309.13 260.16 309.54 260.41C309.95 260.66 310.09 260.93 309.99 261.06Z" fill="#263238"/>
<path d="M287.3 271.82C287.21 270.67 286.19 269.79 285.04 269.94C283.65 270.12 282.12 270.97 282.32 273.85C282.66 278.96 287.72 277.56 287.72 277.42C287.72 277.32 287.47 273.96 287.3 271.83V271.82Z" fill="#AE7461"/>
<path d="M286.47 275.57C286.47 275.57 286.39 275.64 286.24 275.72C286.1 275.8 285.85 275.86 285.58 275.78C285.03 275.62 284.51 274.79 284.43 273.87C284.39 273.41 284.45 272.96 284.59 272.58C284.72 272.2 284.95 271.92 285.21 271.85C285.48 271.77 285.68 271.92 285.75 272.06C285.83 272.2 285.8 272.3 285.83 272.31C285.85 272.32 285.93 272.22 285.88 272.01C285.85 271.91 285.78 271.79 285.66 271.7C285.53 271.61 285.35 271.57 285.16 271.6C284.77 271.65 284.44 272.04 284.28 272.45C284.1 272.87 284.02 273.37 284.07 273.9C284.17 274.93 284.76 275.86 285.52 276.02C285.89 276.09 286.18 275.96 286.33 275.83C286.48 275.69 286.5 275.58 286.48 275.57H286.47Z" fill="#6F4439"/>
<path d="M306.85 250.92C306.8 250.79 306.73 250.67 306.66 250.56C306.08 249.72 305.08 249.23 304.06 249.2C303.44 248.91 302.82 248.68 302.24 248.51C301.48 247.32 300.17 246.49 298.75 246.39C297.15 246.28 295.53 247.12 294.66 248.46C294.45 248.5 294.24 248.54 294.03 248.58C292.95 247.85 291.56 247.6 290.3 247.94C288.89 248.31 287.69 249.41 287.18 250.78C285.92 250.5 284.52 251.03 283.77 252.07C283.02 253.11 282.96 254.61 283.62 255.71C282.72 256.27 281.96 257.21 281.98 258.27C282 259.27 282.94 260.21 283.9 260.06C283.8 262.52 284.17 265.4 284.39 267.94C284.54 269.73 286.86 270.71 287.06 271.93C288.07 278.11 289.98 274.61 290.32 261.73C290.45 261.63 290.57 261.52 290.7 261.39C290.96 261.14 291.01 260.83 291.24 260.55C291.51 260.21 292.03 260.3 292.46 260.33C293.95 260.44 295.44 259.33 295.77 257.87C296.17 258.42 297.05 258.37 297.62 257.98C298.18 257.59 298.53 256.97 298.96 256.44C299.39 255.91 300.01 255.43 300.69 255.5C301.07 255.54 301.43 255.75 301.81 255.71C302.48 255.63 302.78 254.83 302.86 254.16C302.93 253.6 302.98 252.95 303.32 252.54C303.72 252.34 304.14 252.18 304.61 252.12C304.87 252.14 305.13 252.18 305.37 252.21C305.49 252.22 305.61 252.22 305.73 252.21C305.88 252.25 306.04 252.31 306.2 252.38C308.5 253.4 310.64 258.01 310.64 258.01C310.69 255.04 308.99 252.62 306.86 250.92H306.85Z" fill="#263238"/>
<path d="M291.5 250.14C291.5 250.14 291.51 250.09 291.55 250C291.59 249.91 291.66 249.78 291.76 249.63C291.97 249.32 292.32 248.89 292.9 248.53C293.47 248.17 294.28 247.88 295.21 247.96C296.12 248.03 297.13 248.46 297.85 249.29H297.7C298.04 248.93 298.43 248.6 298.88 248.33C299.95 247.66 301.24 247.46 302.31 247.76C303.38 248.03 304.2 248.74 304.55 249.49C304.92 250.24 304.93 250.95 304.85 251.39C304.81 251.62 304.75 251.79 304.7 251.9C304.65 252.01 304.62 252.06 304.61 252.06C304.59 252.06 304.71 251.82 304.76 251.38C304.82 250.94 304.78 250.26 304.41 249.56C304.05 248.85 303.27 248.2 302.25 247.95C301.23 247.68 300.01 247.87 298.98 248.52C298.55 248.78 298.17 249.1 297.84 249.44L297.76 249.52L297.69 249.43C297.01 248.64 296.06 248.22 295.19 248.14C294.31 248.05 293.53 248.31 292.97 248.64C292.4 248.97 292.04 249.38 291.82 249.66C291.6 249.95 291.51 250.13 291.49 250.13L291.5 250.14Z" fill="white"/>
<path d="M282.97 256C282.97 256 282.98 255.97 283.01 255.92C283.04 255.87 283.09 255.8 283.17 255.71C283.32 255.54 283.57 255.31 283.95 255.1C284.33 254.9 284.84 254.72 285.45 254.72C286.05 254.71 286.77 254.88 287.37 255.36L287.23 255.41C287.43 254.4 288.17 253.39 289.26 252.78C289.8 252.47 290.42 252.25 291.08 252.16C291.74 252.07 292.43 252.1 293.11 252.23C294.44 252.49 295.6 253.09 296.59 253.72L296.44 253.77C296.87 252.59 297.75 251.73 298.66 251.27C299.59 250.8 300.54 250.75 301.27 250.86C302.01 250.97 302.56 251.24 302.91 251.45C303.08 251.56 303.21 251.65 303.29 251.72C303.37 251.79 303.41 251.82 303.41 251.83C303.41 251.84 303.23 251.7 302.88 251.51C302.53 251.32 301.99 251.08 301.26 250.98C300.54 250.89 299.62 250.95 298.74 251.42C297.86 251.87 297.03 252.71 296.63 253.84L296.59 253.96L296.48 253.89C295.5 253.27 294.35 252.69 293.06 252.44C292.4 252.31 291.74 252.28 291.1 252.37C290.47 252.46 289.87 252.67 289.35 252.96C288.3 253.54 287.59 254.5 287.39 255.46L287.36 255.6L287.25 255.51C286.69 255.05 286.01 254.87 285.43 254.87C284.84 254.86 284.34 255.02 283.97 255.2C283.22 255.58 282.97 256.03 282.95 256.01L282.97 256Z" fill="white"/>
<path d="M303.35 252.19C303.35 252.19 303.32 252.26 303.27 252.39C303.22 252.52 303.15 252.72 303.1 252.99C303.04 253.26 302.99 253.59 302.92 253.97C302.84 254.35 302.77 254.82 302.46 255.25C302.3 255.46 302.04 255.62 301.75 255.66C301.46 255.7 301.17 255.66 300.88 255.63C300.59 255.61 300.28 255.6 300.01 255.72C299.74 255.85 299.5 256.07 299.29 256.32C299.07 256.57 298.87 256.85 298.65 257.14C298.44 257.42 298.24 257.75 297.91 257.98C297.59 258.21 297.2 258.35 296.8 258.4C296.6 258.42 296.39 258.43 296.18 258.38C295.97 258.34 295.75 258.23 295.62 258.03L295.81 257.99C295.75 258.29 295.65 258.59 295.5 258.86C295.34 259.13 295.14 259.39 294.9 259.61C294.41 260.04 293.79 260.32 293.13 260.43C292.86 260.48 292.58 260.49 292.31 260.49C292.03 260.47 291.79 260.43 291.57 260.52C291.34 260.6 291.18 260.76 291.04 260.97C290.89 261.18 290.72 261.38 290.54 261.56C289.83 262.29 288.92 262.84 287.95 262.88C286.99 262.89 286.13 262.47 285.51 261.93C284.89 261.38 284.49 260.69 284.32 260.02L284.41 260.07C283.76 260.23 283.14 260.04 282.73 259.73C282.31 259.42 282.11 258.99 282.02 258.65C281.94 258.3 281.96 258.02 282 257.84C282.02 257.75 282.04 257.68 282.06 257.64C282.08 257.6 282.09 257.57 282.09 257.57C282.12 257.57 281.93 257.96 282.1 258.63C282.19 258.96 282.4 259.36 282.8 259.64C283.19 259.92 283.78 260.09 284.37 259.93L284.44 259.91L284.46 259.98C284.63 260.62 285.02 261.28 285.62 261.8C286.22 262.31 287.04 262.7 287.94 262.68C288.83 262.64 289.71 262.11 290.39 261.4C290.56 261.22 290.73 261.03 290.87 260.83C291 260.62 291.23 260.39 291.5 260.3C291.64 260.25 291.78 260.23 291.92 260.23L292.32 260.26C292.58 260.26 292.84 260.26 293.1 260.2C293.72 260.1 294.31 259.83 294.76 259.44C294.98 259.24 295.17 259 295.32 258.75C295.46 258.49 295.55 258.22 295.61 257.94L295.66 257.7L295.79 257.9C295.98 258.19 296.42 258.23 296.78 258.18C297.15 258.14 297.51 258.01 297.8 257.81C298.09 257.61 298.28 257.3 298.5 257.01C298.72 256.73 298.93 256.45 299.15 256.19C299.38 255.93 299.63 255.69 299.94 255.55C300.26 255.41 300.59 255.43 300.89 255.45C301.19 255.48 301.47 255.52 301.73 255.49C301.99 255.46 302.21 255.33 302.35 255.14C302.64 254.76 302.72 254.3 302.81 253.92C302.89 253.54 302.95 253.21 303.02 252.94C303.09 252.67 303.17 252.47 303.23 252.34C303.3 252.21 303.34 252.15 303.34 252.15L303.35 252.19Z" fill="#455A64"/>
<path d="M299.65 276.26C299.23 277.59 299.62 279.01 300.84 279.68C301.26 279.91 301.79 279.96 302.25 279.82C302.81 279.64 303.33 279.34 303.54 278.75C303.74 278.2 303.91 277.62 303.84 277.04C302.67 276.79 300.82 276.52 299.65 276.27V276.26Z" fill="#6F4439"/>
<path d="M303.37 279.09C303.37 279.09 303.29 279.23 303.07 279.4C302.85 279.57 302.48 279.77 301.98 279.82C301.48 279.88 300.84 279.74 300.32 279.32C299.79 278.91 299.39 278.21 299.34 277.44C299.31 277.05 299.34 276.66 299.44 276.31L299.46 276.22L299.55 276.24C300.76 276.46 301.81 276.66 302.56 276.81C303.31 276.96 303.76 277.06 303.76 277.09C303.76 277.11 303.3 277.06 302.54 276.94C301.78 276.82 300.72 276.65 299.51 276.44L299.63 276.36C299.54 276.69 299.51 277.06 299.54 277.42C299.6 278.14 299.95 278.78 300.44 279.17C300.92 279.57 301.5 279.71 301.97 279.67C302.44 279.64 302.81 279.47 303.03 279.33C303.26 279.18 303.36 279.07 303.37 279.09Z" fill="#263238"/>
<path d="M418.22 151.13H272.29C266.756 151.13 262.27 155.616 262.27 161.15V207.88C262.27 213.414 266.756 217.9 272.29 217.9H418.22C423.754 217.9 428.24 213.414 428.24 207.88V161.15C428.24 155.616 423.754 151.13 418.22 151.13Z" fill="white"/>
<path d="M418.23 217.9C418.23 217.9 418.33 217.89 418.52 217.87C418.71 217.85 419 217.85 419.38 217.8C420.13 217.7 421.27 217.48 422.6 216.82C423.93 216.17 425.45 215.03 426.62 213.19C427.2 212.28 427.68 211.19 427.93 209.97C428.21 208.75 428.14 207.41 428.14 205.99C428.13 200.32 428.11 193.38 428.1 185.32C428.1 181.29 428.09 176.98 428.08 172.42C428.08 170.14 428.08 167.79 428.08 165.38C428.08 164.17 428.08 162.95 428.08 161.72C428.09 160.49 427.98 159.26 427.58 158.07C426.81 155.7 425.06 153.6 422.74 152.41C421.58 151.81 420.29 151.45 418.97 151.36C417.64 151.29 416.25 151.34 414.88 151.33C409.35 151.33 403.59 151.33 397.63 151.34C385.71 151.34 372.97 151.36 359.56 151.36C332.75 151.36 303.27 151.37 272.32 151.38C270.43 151.39 268.56 151.93 266.99 152.96C265.42 153.98 264.16 155.46 263.4 157.16C263.04 158.01 262.74 158.91 262.65 159.83C262.52 160.74 262.55 161.69 262.55 162.64C262.55 164.54 262.55 166.43 262.55 168.31C262.55 175.85 262.55 183.27 262.55 190.57C262.55 194.22 262.55 197.83 262.55 201.42C262.55 203.21 262.55 204.99 262.55 206.77C262.5 208.55 262.67 210.26 263.39 211.84C264.76 215 267.88 217.23 271.21 217.58C272.04 217.66 272.89 217.65 273.75 217.65C274.6 217.65 275.45 217.65 276.3 217.65C278 217.65 279.68 217.65 281.36 217.65C308.18 217.67 332.32 217.69 352.61 217.71C372.88 217.74 389.29 217.77 400.64 217.79C406.3 217.81 410.7 217.83 413.7 217.84C415.19 217.85 416.32 217.86 417.1 217.87C417.87 217.87 418.26 217.9 418.26 217.9C418.26 217.9 417.87 217.92 417.1 217.93C416.32 217.93 415.19 217.94 413.7 217.96C410.7 217.97 406.3 217.99 400.64 218.01C389.29 218.03 372.88 218.06 352.61 218.09C332.33 218.11 308.18 218.12 281.36 218.15C279.68 218.15 278 218.15 276.3 218.15C275.45 218.15 274.6 218.15 273.75 218.15C272.9 218.15 272.04 218.16 271.16 218.08C267.66 217.71 264.38 215.37 262.94 212.05C262.18 210.42 262 208.53 262.05 206.78C262.05 205.01 262.05 203.22 262.05 201.43C262.05 197.85 262.05 194.23 262.05 190.58C262.05 183.28 262.05 175.86 262.05 168.32C262.05 166.44 262.05 164.55 262.05 162.65C262.05 161.71 262.02 160.75 262.15 159.77C262.25 158.8 262.56 157.86 262.94 156.96C263.74 155.17 265.07 153.62 266.72 152.54C268.37 151.46 270.35 150.89 272.33 150.87C303.27 150.87 332.75 150.88 359.57 150.89C372.98 150.89 385.72 150.91 397.64 150.91C403.6 150.91 409.36 150.92 414.89 150.92C416.28 150.94 417.63 150.89 419.01 150.96C420.39 151.06 421.73 151.44 422.93 152.06C425.34 153.3 427.15 155.49 427.94 157.94C428.35 159.16 428.47 160.46 428.45 161.7C428.45 162.94 428.45 164.16 428.45 165.36C428.45 167.77 428.45 170.12 428.45 172.4C428.45 176.97 428.44 181.27 428.43 185.3C428.41 193.35 428.4 200.29 428.39 205.97C428.38 207.38 428.44 208.74 428.15 209.99C427.89 211.23 427.39 212.33 426.8 213.25C425.61 215.11 424.05 216.26 422.7 216.89C421.34 217.54 420.2 217.74 419.44 217.82C418.68 217.88 418.28 217.87 418.28 217.87L418.23 217.9Z" fill="#263238"/>
<path d="M405.12 198.85C398.91 198.4 394.24 193.01 394.68 186.8C395.13 180.59 400.52 175.92 406.73 176.36C412.94 176.81 417.61 182.2 417.17 188.41C416.72 194.62 411.33 199.29 405.12 198.85Z" fill="#3D73DD"/>
<path d="M405.24 193.54L398.48 188.27L400.31 185.91L404.85 189.44L411.34 182.02L413.59 183.99L405.24 193.54Z" fill="white"/>
<path d="M379.89 182.41H337.48C333.73 182.41 330.69 185.45 330.69 189.2C330.69 192.95 333.73 195.99 337.48 195.99H379.89C383.64 195.99 386.68 192.95 386.68 189.2C386.68 185.45 383.64 182.41 379.89 182.41Z" fill="#E0E0E0"/>
<path d="M314.523 205.498C325.638 196.876 327.659 180.877 319.037 169.762C310.416 158.647 294.416 156.626 283.301 165.248C272.186 173.869 270.165 189.869 278.787 200.984C287.408 212.098 303.408 214.12 314.523 205.498Z" fill="white"/>
<path d="M276.29 196.79C276.29 196.79 276.37 196.91 276.51 197.14C276.65 197.39 276.86 197.74 277.12 198.2C277.25 198.43 277.4 198.69 277.56 198.98C277.74 199.26 277.96 199.55 278.18 199.87C278.63 200.51 279.13 201.26 279.83 202C281.11 203.57 282.97 205.26 285.37 206.84C287.78 208.4 290.82 209.77 294.38 210.46C297.92 211.13 302 211.18 306.09 209.99C307.1 209.66 308.15 209.38 309.14 208.9C309.64 208.67 310.16 208.48 310.66 208.22C311.15 207.95 311.64 207.67 312.13 207.4C312.37 207.26 312.63 207.13 312.87 206.97L313.57 206.48C314.04 206.15 314.52 205.83 314.98 205.47C315.85 204.7 316.8 203.98 317.58 203.08C318.44 202.25 319.16 201.27 319.91 200.31C320.26 199.81 320.58 199.28 320.91 198.76C321.26 198.25 321.54 197.69 321.82 197.13C322.43 196.04 322.85 194.84 323.32 193.66C323.67 192.43 324.07 191.2 324.25 189.92C324.68 187.37 324.83 184.69 324.42 182.03C324.04 179.37 323.24 176.75 322.05 174.25C320.8 171.79 319.2 169.55 317.33 167.63C316.84 167.17 316.36 166.7 315.88 166.24C315.36 165.83 314.83 165.42 314.31 165.01C314.06 164.8 313.78 164.61 313.5 164.44L312.67 163.91L311.84 163.39L310.97 162.95C309.83 162.31 308.62 161.88 307.43 161.41C306.2 161.06 305 160.66 303.76 160.48C303.15 160.36 302.54 160.24 301.92 160.21C301.3 160.16 300.69 160.08 300.08 160.06C298.86 160.07 297.64 160.04 296.46 160.22C295.26 160.29 294.12 160.6 292.98 160.82C292.42 160.97 291.87 161.16 291.32 161.33L290.5 161.59C290.23 161.68 289.97 161.81 289.71 161.92C289.19 162.14 288.67 162.37 288.16 162.59C287.66 162.83 287.18 163.12 286.7 163.38C285.71 163.87 284.86 164.54 283.98 165.14C280.54 167.66 278.09 170.92 276.47 174.14C274.84 177.38 274.08 180.63 273.84 183.49C273.62 186.36 273.82 188.86 274.29 190.83C274.45 191.83 274.75 192.69 274.98 193.44C275.1 193.81 275.19 194.16 275.31 194.47C275.44 194.77 275.55 195.05 275.66 195.3C275.86 195.79 276.01 196.16 276.12 196.43C276.22 196.68 276.27 196.82 276.27 196.82C276.27 196.82 276.2 196.7 276.09 196.45C275.97 196.19 275.81 195.82 275.59 195.34C275.48 195.09 275.36 194.82 275.23 194.52C275.11 194.21 275.01 193.86 274.89 193.49C274.65 192.74 274.34 191.89 274.17 190.88C273.68 188.9 273.45 186.38 273.65 183.49C273.86 180.6 274.62 177.32 276.25 174.04C277.88 170.78 280.34 167.48 283.82 164.91C284.71 164.3 285.57 163.63 286.57 163.13C287.06 162.87 287.54 162.57 288.05 162.33C288.57 162.11 289.09 161.88 289.62 161.65C289.88 161.54 290.14 161.41 290.42 161.32L291.25 161.06C291.81 160.89 292.36 160.69 292.93 160.54C294.09 160.31 295.25 160 296.46 159.92C297.66 159.74 298.89 159.77 300.13 159.75C300.75 159.77 301.37 159.85 301.99 159.9C302.62 159.93 303.24 160.05 303.86 160.17C305.12 160.35 306.34 160.75 307.58 161.1C308.78 161.58 310.02 162.02 311.17 162.66L312.05 163.11L312.89 163.64L313.73 164.18C314.02 164.35 314.29 164.54 314.55 164.76C315.08 165.17 315.61 165.59 316.14 166C316.63 166.47 317.12 166.93 317.61 167.4C319.51 169.35 321.13 171.62 322.4 174.12C323.6 176.65 324.41 179.31 324.8 182.01C325.22 184.71 325.06 187.42 324.63 190.01C324.44 191.32 324.04 192.56 323.68 193.81C323.2 195.01 322.77 196.22 322.15 197.33C321.87 197.9 321.58 198.46 321.23 198.98C320.89 199.5 320.57 200.04 320.21 200.55C319.44 201.52 318.72 202.52 317.84 203.36C317.04 204.27 316.08 205 315.2 205.78C314.73 206.14 314.24 206.46 313.77 206.8L313.06 207.3C312.82 207.46 312.56 207.59 312.31 207.73C311.81 208.01 311.31 208.28 310.82 208.56C310.32 208.82 309.79 209.01 309.28 209.24C308.27 209.72 307.21 210 306.19 210.33C302.04 211.52 297.92 211.45 294.34 210.76C290.75 210.05 287.69 208.65 285.27 207.06C282.86 205.45 281 203.74 279.73 202.14C279.04 201.39 278.55 200.62 278.1 199.97C277.88 199.64 277.67 199.35 277.49 199.07C277.33 198.78 277.19 198.52 277.06 198.28C276.81 197.82 276.62 197.46 276.48 197.21C276.35 196.97 276.3 196.84 276.3 196.84L276.29 196.79Z" fill="#263238"/>
<path d="M279.82 202L289.6 198.58L305.19 197.98L319.57 200.75C319.57 200.75 312.59 211.58 299.69 211.21C286.79 210.84 279.81 202 279.81 202H279.82Z" fill="#3D73DD"/>
<path d="M309.43 163.06C312.72 163.13 315.54 168.03 315.05 170.78C314.81 172.12 314.2 173.65 315.29 174.64C316.36 175.62 318.62 175.54 319.64 176.55C319.64 176.55 320.95 177.85 320.8 179.54C320.66 181.23 320.93 183.48 322.27 184.08L315.59 186.47C314.9 185.77 314.63 184.67 313.94 183.97C314.73 184.7 315.49 187.31 311.92 187.6L309.7 185.64C303.62 187.2 297.23 189.14 292.37 186.49" fill="#263238"/>
<path d="M278.46 177.67C278.9 176.4 279.62 175.24 279.93 173.93C280.58 171.13 279.27 167.93 280.69 165.42C281.7 163.64 283.78 162.79 285.75 162.23C287.72 161.66 289.6 161.33 291.09 159.92C292.18 158.89 292.82 157.45 293.9 156.41C295.45 154.93 297.7 154.46 299.84 154.37C302.04 154.28 304.3 154.53 306.26 155.54C308.22 156.55 309.82 158.4 310.13 160.57C310.28 161.63 310.13 162.74 310.44 163.76C310.79 164.89 311.65 165.78 312.17 166.83C313.27 169.06 312.6 172.03 310.63 173.56L295.19 192.74C292 193.88 288.54 189.82 286.13 187.44C283.73 185.06 277.33 180.85 278.44 177.66L278.46 177.67Z" fill="#263238"/>
<path d="M310.29 171.1C309.75 166.67 306.49 161.38 302.09 162.11L288.46 166.41C287.12 166.63 286.41 167.7 285.95 167.5L289.94 199.21L299.29 205.84L305.11 198.86C305.11 198.86 304.68 194.51 304.68 194.53C304.68 194.53 310.31 193.26 311.06 185.78C311.43 182.06 310.9 176.03 310.3 171.1H310.29Z" fill="#FFBF9D"/>
<path d="M298.35 177.84C298.4 178.34 298.01 178.79 297.49 178.85C296.97 178.91 296.51 178.55 296.46 178.05C296.41 177.55 296.8 177.1 297.32 177.04C297.84 176.98 298.3 177.34 298.35 177.84Z" fill="#263238"/>
<path d="M307.74 177.37C307.79 177.87 307.4 178.32 306.88 178.38C306.36 178.44 305.9 178.08 305.85 177.58C305.8 177.08 306.19 176.63 306.71 176.57C307.23 176.51 307.69 176.87 307.74 177.37Z" fill="#263238"/>
<path d="M309.41 174.49C309.3 174.66 308.43 174.09 307.32 174.23C306.21 174.35 305.49 175.11 305.35 174.97C305.28 174.91 305.37 174.61 305.69 174.27C306 173.93 306.55 173.56 307.24 173.48C307.93 173.4 308.55 173.62 308.93 173.88C309.31 174.14 309.47 174.41 309.41 174.49Z" fill="#263238"/>
<path d="M299.27 175.41C299.14 175.57 298.28 174.92 297.09 174.95C295.9 174.95 295.04 175.63 294.91 175.48C294.84 175.41 294.98 175.13 295.35 174.83C295.72 174.53 296.35 174.23 297.09 174.21C297.83 174.2 298.46 174.48 298.83 174.77C299.2 175.06 299.34 175.34 299.27 175.41Z" fill="#263238"/>
<path d="M303.27 182.46C303.27 182.4 303.89 182.26 304.91 182.06C305.17 182.02 305.41 181.95 305.45 181.77C305.5 181.58 305.37 181.3 305.23 181.01C304.95 180.39 304.65 179.74 304.34 179.07C303.1 176.3 302.19 174.02 302.3 173.97C302.41 173.92 303.51 176.13 304.74 178.9C305.04 179.58 305.32 180.23 305.6 180.86C305.72 181.15 305.91 181.48 305.79 181.88C305.73 182.08 305.55 182.23 305.38 182.29C305.22 182.35 305.07 182.36 304.94 182.38C303.91 182.5 303.26 182.54 303.26 182.48L303.27 182.46Z" fill="#263238"/>
<path d="M304.67 194.53C304.67 194.53 299.7 195.14 294.59 192.46C294.59 192.46 297.4 197.74 304.78 196.62L304.67 194.53Z" fill="#FF9A6C"/>
<path d="M302.98 184.95C302.58 184.48 301.92 184.26 301.29 184.36C300.85 184.43 300.41 184.67 300.16 185.05C299.91 185.43 299.88 185.94 300.15 186.27C300.45 186.64 301.03 186.7 301.51 186.53C301.99 186.36 302.39 186.02 302.77 185.67C302.88 185.58 302.98 185.48 303.04 185.35C303.1 185.22 303.11 185.07 303.02 184.97" fill="#3D73DD"/>
<path d="M300.3 183.35C300.47 183.33 300.53 184.44 301.53 185.17C302.52 185.91 303.7 185.71 303.72 185.87C303.74 185.94 303.47 186.1 302.97 186.14C302.48 186.19 301.76 186.07 301.15 185.62C300.54 185.17 300.26 184.54 300.19 184.09C300.12 183.63 300.23 183.35 300.31 183.35H300.3Z" fill="#263238"/>
<path d="M299.24 171.93C299.16 172.21 298.13 172.14 296.93 172.36C295.73 172.55 294.79 172.96 294.61 172.72C294.53 172.6 294.69 172.33 295.06 172.04C295.43 171.75 296.04 171.46 296.75 171.34C297.47 171.22 298.13 171.3 298.58 171.45C299.03 171.6 299.27 171.81 299.23 171.94L299.24 171.93Z" fill="#263238"/>
<path d="M309.1 170.8C308.91 171.04 308.09 170.85 307.12 170.89C306.15 170.9 305.34 171.15 305.14 170.92C305.05 170.81 305.17 170.57 305.51 170.33C305.85 170.09 306.43 169.88 307.1 169.86C307.77 169.84 308.35 170.02 308.71 170.24C309.07 170.46 309.19 170.69 309.11 170.81L309.1 170.8Z" fill="#263238"/>
<path d="M274.08 176.25C274.78 174.96 273.43 173.51 274.51 172.32C275.49 171.23 278.07 171.2 279 170.09C279.72 169.22 279.75 169 279.78 168.18C279.81 167.16 280.27 162.89 286.52 162.02L287.38 165.91C287.77 165.73 288.17 165.57 288.57 165.42C293.65 163.57 298.96 162.32 304.34 161.72C304.99 162.83 304.34 164.32 303.32 165.1C302.3 165.88 301 166.17 299.78 166.6C298.57 167.03 297.32 167.7 296.8 168.88C296.25 170.13 296.67 171.64 296.18 172.92C295.34 175.12 292.23 175.78 291.4 177.98C290.77 179.65 292.43 181.56 292.64 183.33C292.88 185.34 293.29 188.44 291.8 189.8C290.62 190.88 288.29 192.43 288.29 192.43L269.87 180.86C268.91 178.51 273.13 178 274.09 176.23L274.08 176.25Z" fill="#263238"/>
<path d="M287.16 190.5C287.16 190.5 287.71 190.43 288.6 190.01C289.47 189.59 290.72 188.76 291.63 187.23C292.08 186.47 292.43 185.55 292.57 184.52C292.71 183.49 292.63 182.35 292.27 181.24C292.1 180.69 291.89 180.13 291.75 179.56C291.61 178.99 291.56 178.37 291.7 177.78C291.83 177.19 292.22 176.68 292.75 176.36C293.28 176.03 293.92 175.84 294.54 175.6C295.16 175.36 295.8 175.05 296.23 174.51C296.65 173.97 296.82 173.29 296.87 172.66C296.97 171.4 296.76 170.16 297.18 169.11L297.26 168.92L297.36 168.74C297.42 168.62 297.51 168.51 297.59 168.41C297.77 168.21 297.97 168.04 298.2 167.9C298.65 167.62 299.15 167.45 299.64 167.3C300.61 167.02 301.57 166.79 302.33 166.31C303.08 165.84 303.64 165.24 304.04 164.67C304.44 164.09 304.67 163.53 304.81 163.06C304.96 162.59 304.99 162.21 305.02 161.95C305.02 161.69 305.02 161.56 305.02 161.56C304.99 161.56 305.02 162.11 304.73 163.04C304.58 163.5 304.34 164.04 303.94 164.6C303.54 165.15 302.99 165.73 302.25 166.17C301.52 166.63 300.59 166.84 299.59 167.12C299.1 167.26 298.58 167.44 298.1 167.73C297.86 167.88 297.64 168.06 297.44 168.28C297.35 168.39 297.25 168.51 297.18 168.64L297.06 168.83L296.97 169.04C296.51 170.17 296.73 171.43 296.63 172.66C296.59 173.27 296.42 173.89 296.04 174.38C295.65 174.87 295.06 175.16 294.45 175.39C293.84 175.63 293.19 175.82 292.62 176.18C292.34 176.36 292.07 176.58 291.87 176.85C291.67 177.12 291.54 177.43 291.46 177.75C291.31 178.39 291.38 179.04 291.52 179.63C291.66 180.23 291.88 180.78 292.05 181.33C292.79 183.51 292.34 185.7 291.48 187.17C290.61 188.67 289.4 189.51 288.55 189.95C288.12 190.17 287.77 190.31 287.53 190.39C287.29 190.47 287.16 190.51 287.16 190.52V190.5Z" fill="#263238"/>
<path d="M308.69 163.42C308.69 163.42 309.08 163.29 309.82 163.22C310.54 163.16 311.66 163.2 312.82 163.82C313.96 164.42 315.12 165.67 315.47 167.37C315.65 168.22 315.65 169.14 315.57 170.08C315.53 170.55 315.48 171.03 315.44 171.53C315.4 172.03 315.38 172.54 315.5 173.06C315.6 173.57 315.91 174.08 316.39 174.33C316.87 174.58 317.39 174.59 317.87 174.6C318.35 174.6 318.81 174.6 319.24 174.72C319.67 174.84 320.07 175.03 320.4 175.29C321.08 175.8 321.52 176.54 321.66 177.29C321.8 178.04 321.72 178.77 321.64 179.42C321.56 180.08 321.47 180.68 321.47 181.21C321.47 181.74 321.52 182.2 321.63 182.56C321.73 182.92 321.88 183.18 321.99 183.34C322.04 183.42 322.09 183.48 322.13 183.52C322.16 183.56 322.18 183.58 322.18 183.57C322.21 183.55 321.9 183.25 321.72 182.53C321.63 182.18 321.58 181.72 321.6 181.2C321.61 180.68 321.71 180.09 321.81 179.43C321.9 178.77 322 178.03 321.86 177.24C321.73 176.45 321.26 175.65 320.54 175.1C320.18 174.82 319.76 174.61 319.3 174.48C318.84 174.35 318.35 174.35 317.87 174.35C317.4 174.35 316.91 174.33 316.51 174.11C316.1 173.9 315.84 173.47 315.74 173C315.54 172.04 315.77 171.05 315.82 170.09C315.89 169.13 315.89 168.19 315.7 167.32C315.33 165.54 314.1 164.26 312.91 163.66C311.7 163.04 310.55 163.03 309.82 163.12C309.45 163.17 309.17 163.24 308.98 163.3C308.79 163.36 308.7 163.4 308.7 163.41L308.69 163.42Z" fill="#263238"/>
<path d="M277.67 185.57C277.67 185.57 277.66 185.53 277.63 185.46C277.6 185.38 277.55 185.28 277.52 185.12C277.43 184.82 277.36 184.36 277.47 183.77C277.57 183.19 277.86 182.49 278.48 181.92C278.79 181.64 279.18 181.41 279.64 181.28C280.1 181.15 280.61 181.11 281.12 180.93C281.38 180.84 281.63 180.71 281.84 180.51C282.05 180.32 282.21 180.06 282.32 179.78C282.54 179.22 282.57 178.6 282.54 177.97C282.51 177.34 282.43 176.7 282.52 176.05C282.57 175.73 282.66 175.4 282.84 175.12C283.03 174.85 283.25 174.58 283.55 174.41C284.13 174.03 284.84 173.87 285.55 173.69C286.26 173.51 287.02 173.34 287.68 172.9C288.01 172.69 288.29 172.38 288.49 172.04C288.69 171.69 288.81 171.3 288.88 170.91C289.03 170.12 289.03 169.31 289.18 168.52C289.47 166.94 290.65 165.63 292.06 165.1C292.77 164.82 293.52 164.81 294.26 164.73C294.63 164.69 295 164.64 295.35 164.53C295.7 164.42 296.03 164.24 296.29 163.98C296.81 163.45 296.99 162.75 297.22 162.13C297.43 161.5 297.77 160.95 298.18 160.49C299.02 159.58 300.14 159.07 301.18 158.96C302.23 158.84 303.19 159.13 303.91 159.55C304.64 159.98 305.14 160.52 305.48 161C305.81 161.49 305.99 161.92 306.08 162.22C306.14 162.37 306.15 162.49 306.18 162.56C306.2 162.64 306.21 162.68 306.22 162.68C306.22 162.68 306.2 162.52 306.12 162.21C306.04 161.91 305.87 161.47 305.54 160.97C305.2 160.48 304.7 159.92 303.97 159.48C303.24 159.04 302.26 158.73 301.19 158.85C300.12 158.96 298.98 159.48 298.11 160.41C297.68 160.88 297.33 161.45 297.12 162.09C296.89 162.71 296.71 163.4 296.22 163.89C295.73 164.38 295 164.54 294.27 164.6C293.54 164.67 292.77 164.68 292.03 164.97C290.57 165.51 289.35 166.86 289.05 168.5C288.9 169.31 288.9 170.12 288.75 170.89C288.68 171.27 288.57 171.65 288.38 171.98C288.19 172.31 287.93 172.59 287.62 172.79C286.35 173.62 284.73 173.51 283.5 174.3C283.19 174.49 282.95 174.77 282.75 175.06C282.57 175.36 282.47 175.7 282.42 176.04C282.33 176.72 282.42 177.37 282.45 177.99C282.49 178.61 282.45 179.22 282.25 179.75C282.15 180.01 282 180.25 281.8 180.44C281.6 180.63 281.37 180.75 281.12 180.84C280.63 181.01 280.11 181.06 279.65 181.2C279.18 181.34 278.77 181.58 278.46 181.87C277.83 182.46 277.55 183.19 277.45 183.77C277.35 184.37 277.44 184.84 277.53 185.14C277.57 185.29 277.63 185.4 277.66 185.47C277.69 185.54 277.71 185.58 277.71 185.58L277.67 185.57Z" fill="#455A64"/>
<path d="M151.156 264.318C189.505 258.504 215.88 222.704 210.067 184.355C204.253 146.006 168.453 119.631 130.104 125.444C91.7552 131.258 65.3801 167.058 71.1935 205.407C77.0069 243.756 112.807 270.131 151.156 264.318Z" fill="#F5F5F5"/>
<path d="M201.48 181.31L202.28 211.22L191.61 194.79L166.61 194.55L172.2 204.45C178.03 213.1 181.58 220.38 189.25 228.69C193.08 232.83 196.64 238.61 198.38 239.83C202.54 242.74 208.79 245.09 214.23 240.38C221.81 233.82 220.9 221.2 218.51 208.31C215.86 194 214.46 180.2 214.46 180.2L201.47 181.3L201.48 181.31Z" fill="#FFBF9D"/>
<path d="M204.43 163.21C204.43 163.21 202.13 158.76 200.3 159.16C198.47 159.56 196 161.2 195.7 162.69C195.4 164.18 195.8 165.53 196.49 165.47C197.18 165.42 199.2 164.08 199.2 164.08L201.54 167.37L200.5 171.53L198.06 172.78L196.66 169.87L197.23 166.59C197.23 166.59 195.57 165.18 194.65 167.81C193.73 170.44 192.67 175.17 195.31 177.46C197.95 179.75 202.95 182.85 202.95 182.85L214.91 181.83L217.78 167.75C217.78 167.75 222.56 162.9 222.86 160.92C223.17 158.94 223.43 152.88 223.43 152.88C223.43 152.88 222 151.81 221.17 153.49C220.34 155.17 219.54 160.05 219.54 160.05L215.55 163.9L217.12 146.64C217.12 146.64 214.72 145.08 213.73 148.96C212.75 152.84 211.67 162.43 211.18 162.43C210.69 162.43 209.24 162.43 209.45 160.43C209.66 158.43 209 143.05 209 143.05C209 143.05 205.54 143.8 205.76 147.05C205.97 150.3 205.85 160.47 205.79 161.23C205.73 161.99 204.43 163.19 204.43 163.19V163.21Z" fill="#FFBF9D"/>
<path d="M204.43 225.89C204.28 225.93 203.52 222.68 202.96 218.56C202.4 214.45 202.26 211.07 202.42 211.06C202.58 211.04 202.97 214.37 203.53 218.46C204.08 222.55 204.59 225.85 204.44 225.89H204.43Z" fill="#FF9A6C"/>
<path d="M207.81 177.89C207.72 177.91 207.55 177.41 207.12 176.7C206.7 175.99 205.99 175.09 204.97 174.35C203.95 173.62 202.87 173.21 202.07 173.04C201.26 172.86 200.73 172.85 200.73 172.76C200.73 172.7 201.26 172.56 202.14 172.65C203.01 172.73 204.21 173.11 205.31 173.9C206.4 174.7 207.13 175.73 207.48 176.53C207.83 177.34 207.87 177.89 207.81 177.9V177.89Z" fill="#FF9A6C"/>
<path d="M114.9 178.47L130.99 176.84L158.34 178.04L170.79 182.33L153.46 199.87L130.57 197.02L120.3 191.2L114.9 178.47Z" fill="#FFBF9D"/>
<path d="M151.03 110.3C153.85 108.51 154.53 104.36 153 101.39C151.47 98.42 148.23 96.62 144.93 96.09C140.16 95.32 135.06 97.01 131.69 100.48C129.87 102.35 128.4 104.8 125.93 105.66C123.76 106.41 121.36 105.73 119.09 106.03C116.04 106.43 113.42 108.6 111.86 111.25C110.3 113.9 109.65 116.99 109.29 120.05C108.96 122.85 108.74 125.93 106.79 127.98C104.89 129.98 101.89 130.4 99.53 131.82C95.09 134.49 93.65 141.11 96.58 145.38C97.51 146.74 98.86 147.99 98.96 149.64C99.06 151.15 98.09 152.49 97.63 153.92C96.46 157.62 99.49 162.02 103.37 162.24C105.33 162.35 107.42 161.59 109.18 162.46C110.92 163.33 111.57 165.43 112.69 167.03C114.88 170.17 119.47 171.36 122.91 169.67C124.35 168.96 125.71 167.8 127.31 167.91C128.91 168.02 130.16 169.38 131.73 169.68C133.79 170.08 135.74 168.56 136.96 166.86C138.18 165.16 139.03 163.16 140.6 161.76C142.65 159.94 145.53 159.49 148.12 158.59C153.84 156.62 158.63 152.07 160.89 146.46C163.15 140.84 162.86 134.25 160.1 128.86" fill="#263238"/>
<path d="M121.2 147.16C120.61 146.53 119.77 145.94 118.91 145.65H119.08C118.92 145.6 118.75 145.58 118.59 145.56C117.96 145.41 117.33 145.44 116.8 145.78H116.82C115.84 146.14 114.98 146.86 114.51 147.79C113.69 149.42 113.99 151.5 115.1 152.95C116.06 154.21 117.72 155.04 119.26 154.66C120.68 154.32 121.73 153.03 122.13 151.63C122.57 150.1 122.29 148.32 121.2 147.15V147.16Z" fill="#455A64"/>
<path d="M158.34 178.04L161.33 123.05C161.45 120.63 159.69 118.52 157.29 118.2L132.71 111.24C124.8 110.18 119.25 119.79 118.53 127.74C117.72 136.57 117.08 147.37 117.94 154C119.67 167.33 130.59 169.34 130.59 169.34C130.59 169.3 130.67 182.91 130.59 187.73L138.77 205.45L158.34 178.04Z" fill="#FFBF9D"/>
<path d="M123.5 137.73C123.44 138.63 124.16 139.42 125.09 139.49C126.02 139.57 126.83 138.9 126.89 138.01C126.95 137.11 126.23 136.32 125.3 136.25C124.36 136.17 123.56 136.84 123.5 137.74V137.73Z" fill="#263238"/>
<path d="M120.77 132.53C120.97 132.76 122.29 131.84 124.12 131.9C125.95 131.93 127.27 132.91 127.47 132.69C127.57 132.59 127.37 132.19 126.79 131.74C126.23 131.3 125.26 130.86 124.12 130.83C122.98 130.8 122.01 131.2 121.44 131.61C120.86 132.03 120.66 132.42 120.76 132.52L120.77 132.53Z" fill="#263238"/>
<path d="M139.98 138.16C139.92 139.06 140.64 139.85 141.57 139.92C142.5 140 143.31 139.33 143.37 138.44C143.43 137.54 142.71 136.75 141.78 136.68C140.84 136.6 140.04 137.27 139.98 138.17V138.16Z" fill="#263238"/>
<path d="M138.76 133.38C138.97 133.61 140.28 132.69 142.11 132.75C143.94 132.78 145.26 133.76 145.46 133.54C145.56 133.44 145.36 133.04 144.78 132.59C144.22 132.15 143.25 131.71 142.11 131.68C140.97 131.65 140 132.05 139.43 132.46C138.86 132.88 138.65 133.27 138.75 133.37L138.76 133.38Z" fill="#263238"/>
<path d="M131.73 146.77C131.74 146.67 130.61 146.44 128.77 146.15C128.3 146.09 127.86 145.98 127.79 145.66C127.69 145.32 127.9 144.82 128.14 144.28C128.61 143.16 129.11 141.99 129.62 140.76C131.68 135.75 133.19 131.62 132.99 131.54C132.79 131.46 130.95 135.46 128.89 140.47C128.39 141.71 127.92 142.89 127.46 144.01C127.27 144.54 126.95 145.13 127.17 145.84C127.29 146.19 127.62 146.46 127.92 146.55C128.22 146.65 128.48 146.66 128.71 146.68C130.56 146.83 131.71 146.87 131.72 146.77H131.73Z" fill="#263238"/>
<path d="M130.65 169.29C130.65 169.29 138.76 170.08 147.75 165.01C147.75 165.01 143.91 174.88 130.67 173.26L130.65 169.29Z" fill="#FF9A6C"/>
<path d="M131.88 151.13C132.8 149.9 134.27 149.18 135.64 149.27C136.59 149.33 137.52 149.8 138.01 150.65C138.51 151.5 138.5 152.74 137.88 153.61C137.18 154.59 135.91 154.87 134.88 154.59C133.85 154.31 133.02 153.58 132.23 152.85C132.01 152.65 131.79 152.44 131.67 152.15C131.55 151.86 131.56 151.48 131.77 151.22" fill="#FF9A6C"/>
<path d="M137.08 148.19C136.78 148.16 136.72 150.15 134.98 151.51C133.24 152.88 131.13 152.59 131.11 152.87C131.08 152.99 131.57 153.27 132.46 153.32C133.34 153.38 134.62 153.13 135.69 152.3C136.75 151.46 137.23 150.32 137.32 149.51C137.42 148.68 137.21 148.18 137.08 148.19Z" fill="#263238"/>
<path d="M138.16 125.82C138.33 126.32 140.16 126.14 142.3 126.46C144.45 126.74 146.16 127.41 146.46 126.98C146.59 126.77 146.3 126.29 145.62 125.79C144.94 125.29 143.84 124.8 142.56 124.62C141.27 124.44 140.09 124.62 139.3 124.91C138.5 125.21 138.09 125.59 138.17 125.82H138.16Z" fill="#263238"/>
<path d="M121.6 126.24C121.91 126.66 123.18 126.27 124.7 126.29C126.22 126.26 127.49 126.65 127.8 126.22C127.94 126.01 127.75 125.59 127.2 125.18C126.66 124.77 125.74 124.43 124.7 124.43C123.66 124.43 122.74 124.78 122.2 125.2C121.65 125.61 121.46 126.04 121.6 126.24Z" fill="#263238"/>
<path d="M109.64 124.05C110.26 122.06 111.39 120.17 113.14 119.03C114.1 118.41 115.21 118.03 116.09 117.31C118.01 115.76 118.45 113.07 119.63 110.91C121.16 108.12 124.1 106.17 127.26 105.85C129.89 105.58 132.6 106.37 135.16 105.72C137.05 105.24 138.71 104.01 140.63 103.65C144.37 102.94 147.84 105.62 150.55 108.29C150.56 110.97 148.43 112.75 146.38 114.47C144.33 116.19 141.5 116.93 138.87 116.45C136.83 116.08 134.59 115.05 132.82 116.13C130.96 117.27 130.88 120.08 129.24 121.51C126.88 123.55 123.14 121.64 120.15 122.52C117.84 123.21 116.4 125.41 114.86 127.27C113.33 129.13 111.03 130.89 108.72 130.21C108.87 128.13 109.02 126.04 109.64 124.05Z" fill="#263238"/>
<path d="M137.7 112.74C139.38 112.26 142.8 111.18 143.7 109.72C145.65 106.56 149.09 104.41 152.61 104.6C156.13 104.79 159.5 107.57 160.22 111.28C164.47 111.31 168.62 113.98 170.67 118C170.92 118.5 171.15 119.02 171.33 119.56C172.66 121.89 172.91 124.81 171.95 127.32C171.37 128.83 170.38 130.52 171.16 131.94C171.95 133.39 173.95 133.43 175.51 133.97C178.22 134.9 179.98 138.02 179.38 140.83C179.16 141.84 178.68 142.84 178.89 143.85C179.11 144.9 180.01 145.64 180.7 146.46C182.41 148.5 182.94 151.46 182.04 153.97C181.14 156.47 178.84 158.42 176.22 158.9C175.03 159.12 173.74 159.07 172.7 159.7C171.52 160.43 171 161.85 170.17 162.96C168.57 165.09 165.56 166.03 163.03 165.2C162.52 165.03 162.04 164.78 161.59 164.48C160.79 165.59 159.54 166.34 157.4 166.34L157.89 138.37C157.62 138.96 157.11 139.49 156.19 139.7C151.7 140.72 151.04 131.46 152.05 128.96C150.43 127.52 148.78 126.06 147.54 124.22C146.3 122.39 145.21 117.39 145.47 115.14C143.85 115.23 136.96 112.96 137.69 112.75L137.7 112.74Z" fill="#263238"/>
<path d="M156.65 140.63C156.79 137.79 160.27 137.18 162.74 138.6C164.09 139.38 165.13 140.95 165 143.97C164.67 152.02 156.66 150.03 156.65 149.8C156.65 149.66 156.48 143.96 156.65 140.63Z" fill="#FFBF9D"/>
<path d="M159.24 146.86C159.24 146.86 159.38 146.96 159.61 147.08C159.84 147.2 160.23 147.28 160.66 147.14C161.52 146.86 162.29 145.54 162.39 144.09C162.44 143.36 162.32 142.65 162.08 142.07C161.86 141.47 161.5 141.04 161.07 140.95C160.65 140.83 160.33 141.08 160.23 141.3C160.11 141.52 160.16 141.68 160.11 141.7C160.09 141.72 159.94 141.56 160.02 141.23C160.06 141.07 160.16 140.89 160.36 140.74C160.56 140.59 160.85 140.52 161.14 140.57C161.76 140.64 162.29 141.23 162.55 141.88C162.84 142.53 163 143.32 162.94 144.14C162.82 145.76 161.93 147.24 160.75 147.53C160.18 147.65 159.71 147.46 159.48 147.26C159.24 147.05 159.2 146.87 159.23 146.86H159.24Z" fill="#FF9A6C"/>
<path d="M148.78 110.56C148.72 110.65 149.59 110.79 150.39 111.9C151.19 113 151.49 115.1 150.98 117.47L150.94 117.67L151.14 117.72C153.13 118.22 155.32 119.8 156.33 122.29C156.57 122.9 156.73 123.58 156.75 124.25C156.75 124.93 156.63 125.65 156.5 126.38C156.37 127.11 156.22 127.87 156.19 128.67C156.14 129.46 156.35 130.37 156.83 131.05C157.83 132.57 159.44 133.32 160.82 134.05C162.24 134.76 163.56 135.48 164.56 136.5C166.6 138.51 167.51 141.1 167.57 143.24C167.65 145.41 167.04 147.13 166.51 148.21C165.98 149.31 165.53 149.83 165.57 149.87C165.59 149.88 165.7 149.76 165.91 149.51C166.11 149.25 166.4 148.86 166.7 148.32C167.3 147.24 167.99 145.5 167.97 143.23C167.97 140.99 167.05 138.26 164.93 136.12C163.89 135.03 162.48 134.25 161.08 133.55C159.7 132.82 158.18 132.08 157.31 130.74C156.42 129.52 156.82 127.92 157.05 126.48C157.18 125.75 157.31 125.01 157.3 124.25C157.27 123.48 157.09 122.77 156.83 122.1C155.72 119.43 153.38 117.8 151.25 117.32L151.41 117.57C151.89 115.09 151.51 112.91 150.6 111.77C150.16 111.2 149.68 110.89 149.34 110.74C148.99 110.6 148.81 110.54 148.8 110.56H148.78Z" fill="#455A64"/>
<path d="M162.25 149.87C161.66 149.24 160.82 148.65 159.96 148.36H160.13C159.97 148.3 159.8 148.29 159.64 148.27C159.01 148.12 158.38 148.15 157.85 148.49H157.87C156.89 148.85 156.03 149.57 155.56 150.5C154.74 152.13 155.04 154.21 156.15 155.66C157.11 156.92 158.77 157.75 160.31 157.37C161.73 157.03 162.78 155.74 163.18 154.34C163.62 152.81 163.34 151.03 162.25 149.86V149.87Z" fill="#455A64"/>
<path d="M177.4 253.92L177.55 220.09L180.7 226.34L200.38 206.78C200.38 206.78 190.86 189.46 186.45 186.11C182.04 182.76 164.82 179.27 163.71 178.62C163.71 178.62 159.25 186.14 145.35 190.3C131.45 194.47 119.8 176.53 119.8 176.53L103.98 177.23C103.98 177.23 102.64 200.97 102.4 217.22C102.33 222 102.61 226.17 102.73 228.85C103.25 240.65 115.16 260.96 115.16 260.96C115.16 260.96 132.06 266.99 149.95 264.77C167.83 262.55 177.41 253.92 177.41 253.92H177.4Z" fill="#455A64"/>
<path d="M103.98 177.23C95.73 178.97 88.35 189.34 79.49 209.67L103.55 227.62L103.98 177.23Z" fill="#455A64"/>
<path d="M178.59 199.37C178.59 199.37 178.68 199.75 178.74 200.43C178.8 201.12 178.85 202.11 178.89 203.34C178.97 205.8 178.96 209.21 178.73 212.96C178.5 216.71 178.1 220.1 177.73 222.53C177.54 223.75 177.37 224.73 177.23 225.4C177.09 226.07 176.99 226.44 176.95 226.44C176.86 226.43 177.04 224.92 177.31 222.47C177.58 220.03 177.91 216.65 178.14 212.92C178.36 209.18 178.44 205.79 178.47 203.34C178.5 200.88 178.5 199.36 178.59 199.36V199.37Z" fill="#263238"/>
<path d="M104.73 194.08C104.73 194.08 104.73 194.56 104.61 195.41C104.47 196.38 104.3 197.58 104.09 198.99C103.65 202.01 103.05 206.19 102.71 210.82C102.36 215.46 102.38 219.67 102.49 222.72C102.56 224.14 102.61 225.35 102.66 226.33C102.7 227.18 102.71 227.66 102.66 227.66C102.62 227.66 102.54 227.2 102.42 226.35C102.3 225.5 102.18 224.27 102.06 222.74C101.84 219.69 101.75 215.44 102.1 210.77C102.45 206.1 103.11 201.92 103.66 198.91C103.93 197.41 104.18 196.19 104.37 195.36C104.56 194.52 104.68 194.07 104.72 194.07L104.73 194.08Z" fill="#263238"/>
<path d="M142.39 206.46L143.2 238.76C143.24 240.41 141.94 241.78 140.29 241.82L126.68 242.13C125.09 242.17 123.75 240.94 123.64 239.35L121.44 207.4C121.32 205.73 122.61 204.29 124.28 204.22L139.29 203.55C140.96 203.48 142.36 204.79 142.4 206.45L142.39 206.46Z" fill="#263238"/>
<path d="M130.57 210.14C130.6 210.83 131.19 211.37 131.88 211.34C132.57 211.31 133.11 210.72 133.08 210.03C133.05 209.34 132.46 208.8 131.77 208.83C131.08 208.86 130.54 209.45 130.57 210.14Z" fill="white"/>
<path d="M122.09 214.78C122.09 214.78 118.4 219.56 117.06 221.67C115.72 223.78 115.5 230.46 115.5 230.46L115.56 235.11L108.19 238.37L113.88 254.24L125.06 244.57L136.35 242.45C136.35 242.45 141.56 237.09 142.37 234.69C143.19 232.29 143 230.45 143 230.45C143 230.45 145.31 224.81 145.74 222.84C146.17 220.87 146.01 217.39 146.01 217.39C146.01 217.39 144.56 217.04 143.43 219.45L145.2 215.37C145.2 215.37 144.04 212.34 141.51 215.43C138.98 218.52 134.8 223.73 134.8 223.73L129.96 227.95L129.31 227.26C129.31 227.26 137.74 216.01 137.45 214.07C137.16 212.13 135.31 212.11 133.46 214.25C131.61 216.39 124.07 226.98 123.05 227.13C122.03 227.28 121.66 225.86 121.66 225.86L122.2 221.94L122.57 221.1L122.08 214.76L122.09 214.78Z" fill="#FFBF9D"/>
<path d="M136.63 230.36C136.63 230.36 136.76 230.23 136.97 229.96C137.18 229.69 137.47 229.3 137.82 228.81C138.52 227.83 139.46 226.45 140.42 224.88C141.39 223.31 142.21 221.86 142.77 220.8C143.05 220.27 143.27 219.83 143.42 219.53C143.57 219.23 143.64 219.05 143.62 219.05C143.61 219.05 143.5 219.2 143.33 219.49C143.13 219.83 142.9 220.24 142.61 220.72C142.01 221.76 141.17 223.2 140.2 224.76C139.23 226.32 138.32 227.71 137.66 228.72C137.35 229.19 137.09 229.59 136.88 229.91C136.7 230.19 136.6 230.35 136.62 230.36H136.63Z" fill="#FF9A6C"/>
<path d="M139.25 235.38C139.31 235.42 140.33 233.96 141.53 232.12C142.73 230.28 143.66 228.77 143.61 228.73C143.55 228.69 142.53 230.15 141.33 231.99C140.13 233.82 139.2 235.34 139.25 235.38Z" fill="#FF9A6C"/>
<path d="M82.95 212.25C82.95 212.25 70.48 244.92 69.89 256.21C69.36 266.51 78.27 272.73 85 271.75C100.8 269.46 125.06 244.59 125.06 244.59L115.94 234.91L94.63 244.46L101.26 225.9L82.96 212.25H82.95Z" fill="#FFBF9D"/>
<g opacity="0.3">
<path d="M200.05 243.03C202.69 236.58 200.72 228.77 196 223.63C191.29 218.49 184.23 215.88 177.27 215.64C165.54 215.23 153.79 221.49 147.61 231.47C141.42 241.45 141.02 254.75 146.61 265.08C146.61 265.08 152.27 264.81 156.47 262.67C160.67 260.53 200.06 243.04 200.06 243.04L200.05 243.03Z" fill="black"/>
</g>
<path d="M188.99 270.992C201.604 263.473 205.734 247.151 198.214 234.537C190.695 221.923 174.373 217.793 161.759 225.313C149.145 232.832 145.015 249.154 152.535 261.768C160.054 274.382 176.376 278.512 188.99 270.992Z" fill="#3D73DD"/>
<path d="M173.48 260.54L159.69 248.99L163.72 244.18L172.97 251.93L187.15 236.85L191.72 241.16L173.48 260.54Z" fill="white"/>
<path d="M110.67 229.14C110.67 229.14 110.21 229.39 109.36 229.74C108.42 230.15 107.21 230.68 105.76 231.31C102.65 232.71 98.51 234.58 93.94 236.64C89.37 238.72 85.24 240.59 82.13 242.01C80.68 242.65 79.47 243.19 78.54 243.6C77.69 243.97 77.21 244.16 77.19 244.12C77.17 244.09 77.62 243.84 78.45 243.41C79.28 242.99 80.48 242.39 81.97 241.67C84.96 240.22 89.11 238.27 93.72 236.16C98.33 234.06 102.54 232.22 105.61 230.97C107.15 230.34 108.41 229.86 109.28 229.55C110.16 229.25 110.65 229.1 110.67 229.14Z" fill="#FF9A6C"/>
</g>
<defs>
<clipPath id="clip0_35_751">
<rect width="442.26" height="442.27" fill="white"/>
</clipPath>
</defs>
</svg>
